<?xml version="1.0" standalone="no"?>
<!DOCTYPE svg PUBLIC "-//W3C//DTD SVG 1.1//EN" "http://www.w3.org/Graphics/SVG/1.1/DTD/svg11.dtd" >
<svg>
<metadata>
Created by FontForge 20110222 at Fri Mar 27 13:23:44 2015
 By www-data
Copyright (c) The Font Bureau, Inc., 2003. All rights reserved.
</metadata>
<defs>
<font id="Interstate-BoldCompressed" horiz-adv-x="598" >
  <font-face 
    font-family="Interstate BoldCompressed"
    font-weight="700"
    font-stretch="normal"
    units-per-em="1000"
    panose-1="2 0 5 6 4 0 0 2 0 4"
    ascent="800"
    descent="-200"
    x-height="525"
    cap-height="700"
    bbox="-67 -193 979 903"
    underline-thickness="20"
    underline-position="-113"
    stemh="87"
    stemv="107"
    unicode-range="U+0020-FB02"
  />
<missing-glyph horiz-adv-x="500" 
 />
    <glyph glyph-name="fi" unicode="fi" horiz-adv-x="411" 
d="M382 662c0 -35 -27 -63 -62 -63s-62 28 -62 63c0 36 27 64 62 64s62 -28 62 -64zM230 622c-10 4 -23 6 -37 6c-22 0 -34 -13 -34 -40v-63h57v-99h-57v-426h-105v426h-39v99h39v78c0 83 48 123 107 123c35 0 50 -1 69 -7v-97zM373 0h-107v525h107v-525z" />
    <glyph glyph-name="fl" unicode="fl" horiz-adv-x="411" 
d="M373 0h-107v682l107 47v-729zM230 622c-10 4 -23 6 -37 6c-22 0 -34 -13 -34 -40v-63h57v-99h-57v-426h-105v426h-39v99h39v78c0 83 48 123 107 123c35 0 50 -1 69 -7v-97z" />
    <glyph glyph-name=".notdef" horiz-adv-x="500" 
 />
    <glyph glyph-name="NUL" horiz-adv-x="0" 
 />
    <glyph glyph-name="Eth" unicode="&#xd0;" horiz-adv-x="398" 
d="M369 355c0 -240 -57 -355 -184 -355h-128v319h-36v94h36v287h139c136 0 173 -128 173 -345zM254 354c0 205 -20 248 -66 248h-24v-189h45v-94h-45v-222h22c44 0 68 45 68 257z" />
    <glyph glyph-name="eth" unicode="&#xf0;" horiz-adv-x="349" 
d="M326 277c0 -205 -43 -288 -152 -288c-103 0 -149 94 -149 246c0 148 44 251 136 251c40 0 63 -16 82 -52c-6 47 -20 89 -42 122l-40 -42l-49 47l40 42c-19 12 -41 21 -67 25v83c52 -5 93 -20 126 -45l43 45l48 -47l-45 -48c50 -72 69 -185 69 -339zM220 236
c0 115 -13 152 -45 152c-33 0 -43 -39 -43 -150c0 -113 10 -152 45 -152c31 0 43 39 43 150z" />
    <glyph glyph-name="Lslash" unicode="&#x141;" horiz-adv-x="320" 
d="M303 0h-246v239l-36 -30v119l36 31v341h108v-254l63 53v-119l-63 -53v-223h138v-104z" />
    <glyph glyph-name="lslash" unicode="&#x142;" horiz-adv-x="207" 
d="M190 363l-36 -32v-331h-102v241l-36 -32v115l36 33v325l102 47v-284l36 33v-115z" />
    <glyph glyph-name="Scaron" unicode="&#x160;" horiz-adv-x="349" 
d="M326 164c0 -103 -54 -175 -149 -175c-100 0 -145 70 -155 189l107 19c8 -85 23 -106 48 -106c28 0 40 18 40 63c0 67 -21 98 -84 168c-71 72 -106 138 -106 218c0 98 48 171 144 171c98 0 137 -66 150 -169l-105 -22c-8 69 -20 90 -45 90c-24 0 -36 -17 -36 -61
c0 -49 17 -78 72 -137c81 -82 119 -152 119 -248zM296 903l-87 -160h-78l-87 160h77l50 -79l50 79h75z" />
    <glyph glyph-name="scaron" unicode="&#x161;" horiz-adv-x="314" 
d="M293 130c0 -90 -59 -141 -141 -141c-80 0 -115 54 -133 131l91 34c12 -49 25 -75 47 -75c23 0 37 16 37 42c0 43 -13 64 -62 100c-83 60 -108 108 -108 176c0 82 48 139 132 139c75 0 109 -45 130 -118l-90 -34c-11 38 -23 62 -43 62s-32 -15 -32 -38
c0 -38 15 -55 65 -92c87 -64 107 -113 107 -186zM278 749l-87 -160h-78l-87 160h77l50 -79l50 79h75z" />
    <glyph glyph-name="Yacute" unicode="&#xdd;" horiz-adv-x="368" 
d="M361 700l-117 -404v-296h-113v291l-124 409h122l29 -133c14 -66 25 -124 31 -176c5 52 15 110 28 176l27 133h117zM344 903l-123 -160h-73l73 160h123z" />
    <glyph glyph-name="yacute" unicode="&#xfd;" horiz-adv-x="338" 
d="M328 525l-149 -710h-105l45 178l-109 532h110l20 -141c10 -73 23 -183 28 -255c4 72 19 183 30 255l21 141h109zM325 739l-123 -160h-73l73 160h123z" />
    <glyph glyph-name="Thorn" unicode="&#xde;" horiz-adv-x="366" 
d="M349 368c0 -148 -73 -210 -164 -210h-29v-158h-111v700h111v-134h36c85 0 157 -49 157 -198zM236 363c0 79 -15 108 -54 108h-26v-217h23c38 0 57 32 57 109z" />
    <glyph glyph-name="thorn" unicode="&#xfe;" horiz-adv-x="352" 
d="M325 266c0 -187 -35 -277 -113 -277c-27 0 -52 14 -71 34v-168l-106 -48v875l106 47v-229c16 20 40 36 72 36c88 0 112 -101 112 -270zM218 262c0 135 -9 177 -39 177c-15 0 -28 -8 -38 -18v-315c10 -10 22 -18 39 -18c28 0 38 33 38 174z" />
    <glyph glyph-name="Zcaron" unicode="&#x17d;" horiz-adv-x="322" 
d="M295 0h-269v96l117 375c13 41 33 103 42 129c-18 0 -47 -1 -76 -1h-73v101h259v-96l-116 -371c-13 -43 -33 -106 -42 -133c18 0 43 1 73 1h85v-101zM292 899l-87 -160h-78l-87 160h77l50 -79l50 79h75z" />
    <glyph glyph-name="zcaron" unicode="&#x17e;" horiz-adv-x="301" 
d="M274 0h-254v88l103 246c14 33 32 74 43 97c-20 -1 -43 -1 -71 -1h-61v95h240v-88l-102 -246c-13 -32 -32 -74 -44 -97c20 1 43 1 71 1h75v-95zM282 749l-87 -160h-78l-87 160h77l50 -79l50 79h75z" />
    <glyph glyph-name="onehalf" unicode="&#xbd;" 
d="M588 351l-144 -118c-11 -9 -19 -10 -27 -6c-8 7 -10 15 -6 29l15 47h-79v-162l47 15c15 4 22 2 28 -6c5 -8 4 -16 -5 -27l-118 -144l-118 144c-8 11 -9 19 -5 27c6 8 13 10 29 6l47 -15v162h-79l14 -47c5 -15 3 -22 -6 -29c-7 -4 -16 -3 -27 6l-144 118l144 118
c11 8 20 9 27 5c9 -6 11 -14 6 -29l-14 -47h79v161l-47 -15c-16 -4 -23 -2 -29 6c-4 8 -3 16 5 27l118 144l118 -144c9 -11 10 -19 5 -27c-6 -8 -14 -10 -28 -6l-47 15v-161h79l-15 47c-4 15 -2 23 6 29c8 4 16 3 27 -5z" />
    <glyph glyph-name="onequarter" unicode="&#xbc;" 
d="M588 351l-144 -118c-11 -9 -19 -10 -27 -6c-8 7 -10 15 -6 29l15 47h-79v-162l47 15c15 4 22 2 28 -6c5 -8 4 -16 -5 -27l-118 -144l-118 144c-8 11 -9 19 -5 27c6 8 13 10 29 6l47 -15v162h-79l14 -47c5 -15 3 -22 -6 -29c-7 -4 -16 -3 -27 6l-144 118l144 118
c11 8 20 9 27 5c9 -6 11 -14 6 -29l-14 -47h79v161l-47 -15c-16 -4 -23 -2 -29 6c-4 8 -3 16 5 27l118 144l118 -144c9 -11 10 -19 5 -27c-6 -8 -14 -10 -28 -6l-47 15v-161h79l-15 47c-4 15 -2 23 6 29c8 4 16 3 27 -5z" />
    <glyph glyph-name="onesuperior" unicode="&#xb9;" 
d="M588 351l-144 -118c-11 -9 -19 -10 -27 -6c-8 7 -10 15 -6 29l15 47h-79v-162l47 15c15 4 22 2 28 -6c5 -8 4 -16 -5 -27l-118 -144l-118 144c-8 11 -9 19 -5 27c6 8 13 10 29 6l47 -15v162h-79l14 -47c5 -15 3 -22 -6 -29c-7 -4 -16 -3 -27 6l-144 118l144 118
c11 8 20 9 27 5c9 -6 11 -14 6 -29l-14 -47h79v161l-47 -15c-16 -4 -23 -2 -29 6c-4 8 -3 16 5 27l118 144l118 -144c9 -11 10 -19 5 -27c-6 -8 -14 -10 -28 -6l-47 15v-161h79l-15 47c-4 15 -2 23 6 29c8 4 16 3 27 -5z" />
    <glyph glyph-name="threequarters" unicode="&#xbe;" 
d="M588 351l-144 -118c-11 -9 -19 -10 -27 -6c-8 7 -10 15 -6 29l15 47h-79v-162l47 15c15 4 22 2 28 -6c5 -8 4 -16 -5 -27l-118 -144l-118 144c-8 11 -9 19 -5 27c6 8 13 10 29 6l47 -15v162h-79l14 -47c5 -15 3 -22 -6 -29c-7 -4 -16 -3 -27 6l-144 118l144 118
c11 8 20 9 27 5c9 -6 11 -14 6 -29l-14 -47h79v161l-47 -15c-16 -4 -23 -2 -29 6c-4 8 -3 16 5 27l118 144l118 -144c9 -11 10 -19 5 -27c-6 -8 -14 -10 -28 -6l-47 15v-161h79l-15 47c-4 15 -2 23 6 29c8 4 16 3 27 -5z" />
    <glyph glyph-name="threesuperior" unicode="&#xb3;" 
d="M588 351l-144 -118c-11 -9 -19 -10 -27 -6c-8 7 -10 15 -6 29l15 47h-79v-162l47 15c15 4 22 2 28 -6c5 -8 4 -16 -5 -27l-118 -144l-118 144c-8 11 -9 19 -5 27c6 8 13 10 29 6l47 -15v162h-79l14 -47c5 -15 3 -22 -6 -29c-7 -4 -16 -3 -27 6l-144 118l144 118
c11 8 20 9 27 5c9 -6 11 -14 6 -29l-14 -47h79v161l-47 -15c-16 -4 -23 -2 -29 6c-4 8 -3 16 5 27l118 144l118 -144c9 -11 10 -19 5 -27c-6 -8 -14 -10 -28 -6l-47 15v-161h79l-15 47c-4 15 -2 23 6 29c8 4 16 3 27 -5z" />
    <glyph glyph-name="twosuperior" unicode="&#xb2;" 
d="M588 351l-144 -118c-11 -9 -19 -10 -27 -6c-8 7 -10 15 -6 29l15 47h-79v-162l47 15c15 4 22 2 28 -6c5 -8 4 -16 -5 -27l-118 -144l-118 144c-8 11 -9 19 -5 27c6 8 13 10 29 6l47 -15v162h-79l14 -47c5 -15 3 -22 -6 -29c-7 -4 -16 -3 -27 6l-144 118l144 118
c11 8 20 9 27 5c9 -6 11 -14 6 -29l-14 -47h79v161l-47 -15c-16 -4 -23 -2 -29 6c-4 8 -3 16 5 27l118 144l118 -144c9 -11 10 -19 5 -27c-6 -8 -14 -10 -28 -6l-47 15v-161h79l-15 47c-4 15 -2 23 6 29c8 4 16 3 27 -5z" />
    <glyph glyph-name="brokenbar" unicode="&#xa6;" 
d="M588 351l-144 -118c-11 -9 -19 -10 -27 -6c-8 7 -10 15 -6 29l15 47h-79v-162l47 15c15 4 22 2 28 -6c5 -8 4 -16 -5 -27l-118 -144l-118 144c-8 11 -9 19 -5 27c6 8 13 10 29 6l47 -15v162h-79l14 -47c5 -15 3 -22 -6 -29c-7 -4 -16 -3 -27 6l-144 118l144 118
c11 8 20 9 27 5c9 -6 11 -14 6 -29l-14 -47h79v161l-47 -15c-16 -4 -23 -2 -29 6c-4 8 -3 16 5 27l118 144l118 -144c9 -11 10 -19 5 -27c-6 -8 -14 -10 -28 -6l-47 15v-161h79l-15 47c-4 15 -2 23 6 29c8 4 16 3 27 -5z" />
    <glyph glyph-name="minus" unicode="&#x2212;" 
d="M588 351l-144 -118c-11 -9 -19 -10 -27 -6c-8 7 -10 15 -6 29l15 47h-79v-162l47 15c15 4 22 2 28 -6c5 -8 4 -16 -5 -27l-118 -144l-118 144c-8 11 -9 19 -5 27c6 8 13 10 29 6l47 -15v162h-79l14 -47c5 -15 3 -22 -6 -29c-7 -4 -16 -3 -27 6l-144 118l144 118
c11 8 20 9 27 5c9 -6 11 -14 6 -29l-14 -47h79v161l-47 -15c-16 -4 -23 -2 -29 6c-4 8 -3 16 5 27l118 144l118 -144c9 -11 10 -19 5 -27c-6 -8 -14 -10 -28 -6l-47 15v-161h79l-15 47c-4 15 -2 23 6 29c8 4 16 3 27 -5z" />
    <glyph glyph-name="multiply" unicode="&#xd7;" 
d="M588 351l-144 -118c-11 -9 -19 -10 -27 -6c-8 7 -10 15 -6 29l15 47h-79v-162l47 15c15 4 22 2 28 -6c5 -8 4 -16 -5 -27l-118 -144l-118 144c-8 11 -9 19 -5 27c6 8 13 10 29 6l47 -15v162h-79l14 -47c5 -15 3 -22 -6 -29c-7 -4 -16 -3 -27 6l-144 118l144 118
c11 8 20 9 27 5c9 -6 11 -14 6 -29l-14 -47h79v161l-47 -15c-16 -4 -23 -2 -29 6c-4 8 -3 16 5 27l118 144l118 -144c9 -11 10 -19 5 -27c-6 -8 -14 -10 -28 -6l-47 15v-161h79l-15 47c-4 15 -2 23 6 29c8 4 16 3 27 -5z" />
    <glyph glyph-name="space" unicode=" " horiz-adv-x="187" 
 />
    <glyph glyph-name="space" unicode="&#xa0;" horiz-adv-x="187" 
 />
    <glyph glyph-name="exclam" unicode="!" horiz-adv-x="202" 
d="M155 364l-18 -180h-72l-18 180v336h108v-336zM166 55c0 -38 -26 -66 -65 -66s-66 28 -66 66s27 66 66 66s65 -28 65 -66z" />
    <glyph glyph-name="quotedbl" unicode="&#x22;" horiz-adv-x="408" 
d="M360 700l-25 -327h-73l-25 327h123zM171 700l-25 -327h-73l-25 327h123z" />
    <glyph glyph-name="numbersign" unicode="#" horiz-adv-x="457" 
d="M429 156h-61v-156h-101v156h-77v-156h-101v156h-61v94h61v200h-61v94h61v156h101v-156h77v156h101v-156h61v-94h-61v-200h61v-94zM267 250v200h-77v-200h77z" />
    <glyph glyph-name="dollar" unicode="$" horiz-adv-x="344" 
d="M324 167c0 -83 -38 -142 -100 -162v-71h-107v72c-60 21 -90 78 -98 172l107 19c8 -85 22 -102 48 -102c30 0 42 16 42 62c0 64 -22 95 -86 165c-71 72 -106 135 -106 215c0 77 31 136 92 157v72h106v-71c60 -19 86 -72 97 -153l-106 -22c-8 69 -19 86 -44 86
c-27 0 -38 -16 -38 -60c0 -46 18 -75 73 -134c81 -82 120 -150 120 -245z" />
    <glyph glyph-name="percent" unicode="%" horiz-adv-x="715" 
d="M284 494c0 -135 -36 -219 -128 -219s-126 82 -126 217s36 219 128 219s126 -82 126 -217zM565 700l-318 -700h-97l318 700h97zM685 208c0 -135 -36 -219 -128 -219s-126 82 -126 217s36 219 128 219s126 -82 126 -217zM189 492c0 96 -5 134 -32 134s-31 -36 -31 -132
s5 -134 32 -134s31 36 31 132zM590 206c0 96 -6 134 -32 134c-27 0 -31 -36 -31 -132s5 -134 32 -134s31 36 31 132z" />
    <glyph glyph-name="ampersand" unicode="&#x26;" horiz-adv-x="368" 
d="M362 0h-102l-20 51c-28 -44 -58 -62 -97 -62c-90 0 -123 64 -123 181c0 77 28 155 82 223l-24 61c-19 48 -31 82 -31 121c0 83 53 136 134 136s113 -44 135 -122l-93 -43c-19 58 -26 69 -47 69c-19 0 -28 -13 -28 -38c0 -27 8 -53 22 -88l68 -173c5 25 11 55 18 87
l87 -21c-17 -84 -34 -151 -50 -206zM198 154l-54 135c-15 -35 -23 -74 -23 -110c0 -63 10 -93 32 -93c16 0 29 13 45 68z" />
    <glyph glyph-name="quotesingle" unicode="'" horiz-adv-x="221" 
d="M173 700l-25 -327h-75l-25 327h125z" />
    <glyph glyph-name="parenleft" unicode="(" horiz-adv-x="250" 
d="M231 -68l-68 -42c-90 123 -135 262 -135 412c0 153 45 291 135 414l68 -42c-65 -105 -90 -244 -90 -369c0 -129 25 -268 90 -373z" />
    <glyph glyph-name="parenright" unicode=")" horiz-adv-x="250" 
d="M222 303c0 -153 -45 -291 -135 -414l-68 43c65 105 90 244 90 368c0 129 -25 268 -90 373l68 42c90 -123 135 -262 135 -412z" />
    <glyph glyph-name="asterisk" unicode="*" horiz-adv-x="357" 
d="M334 510l-44 -75l-89 75l22 -114h-90l22 114l-89 -75l-45 75l109 39l-109 41l45 75l89 -77l-22 115h90l-22 -115l89 77l44 -75l-109 -41z" />
    <glyph glyph-name="plus" unicode="+" horiz-adv-x="357" 
d="M336 294h-106v-124h-103v124h-106v100h106v124h103v-124h106v-100z" />
    <glyph glyph-name="comma" unicode="," horiz-adv-x="205" 
d="M166 118l-64 -223h-65l14 223h115z" />
    <glyph glyph-name="hyphen" unicode="-" horiz-adv-x="252" 
d="M220 313h-188v106h188v-106z" />
    <glyph glyph-name="hyphen" unicode="&#xad;" horiz-adv-x="252" 
d="M220 313h-188v106h188v-106z" />
    <glyph glyph-name="period" unicode="." horiz-adv-x="205" 
d="M171 56c0 -38 -28 -67 -67 -67s-67 29 -67 67c0 39 28 68 67 68s67 -29 67 -68z" />
    <glyph glyph-name="slash" unicode="/" horiz-adv-x="277" 
d="M288 790l-196 -880h-103l196 880h103z" />
    <glyph glyph-name="zero" unicode="0" horiz-adv-x="370" 
d="M341 352c0 -239 -36 -363 -158 -363c-119 0 -155 121 -155 359c0 239 36 363 156 363c121 0 157 -125 157 -359zM230 348c0 219 -13 261 -47 261c-33 0 -43 -42 -43 -257c0 -222 11 -261 45 -261s45 39 45 257z" />
    <glyph glyph-name="one" unicode="1" horiz-adv-x="241" 
d="M193 0h-111v557h-69v69c54 7 78 27 88 74h92v-700z" />
    <glyph glyph-name="two" unicode="2" horiz-adv-x="345" 
d="M317 0h-292c7 207 37 277 127 391c40 50 57 97 57 147c0 51 -7 72 -32 72c-27 0 -36 -23 -44 -99l-106 15c11 110 46 185 152 185c96 0 137 -73 137 -170c0 -69 -23 -132 -79 -205c-71 -92 -94 -150 -97 -235h177v-101z" />
    <glyph glyph-name="three" unicode="3" horiz-adv-x="355" 
d="M326 206c0 -135 -54 -217 -154 -217c-99 0 -140 76 -148 184l106 14c5 -68 13 -97 44 -97c32 0 43 32 43 108c0 100 -14 125 -78 125h-23v98h26c54 0 69 28 69 124c0 45 -8 65 -37 65c-28 0 -36 -25 -45 -92l-103 14c13 106 50 179 151 179c93 0 143 -67 143 -163
c0 -104 -28 -151 -80 -169c49 -17 86 -45 86 -173z" />
    <glyph glyph-name="four" unicode="4" horiz-adv-x="348" 
d="M336 164h-39v-164h-96v166h-190v74l191 460h95v-443h39v-93zM206 514c-9 -37 -29 -95 -46 -141l-11 -30c-13 -35 -24 -61 -36 -87c18 0 34 1 56 1h33v124c0 43 2 97 4 133z" />
    <glyph glyph-name="five" unicode="5" horiz-adv-x="360" 
d="M328 238c0 -155 -40 -249 -154 -249c-94 0 -134 72 -144 178l106 14c7 -62 12 -91 43 -91c38 0 41 47 41 145s-9 142 -47 142c-26 0 -41 -18 -54 -52l-85 11l14 364h267v-100h-172l-7 -149c14 16 33 27 66 27c91 0 126 -81 126 -240z" />
    <glyph glyph-name="six" unicode="6" horiz-adv-x="355" 
d="M333 216c0 -140 -56 -227 -157 -227c-94 0 -147 82 -147 240c0 272 89 404 198 487l65 -82c-85 -58 -140 -147 -155 -242c16 23 40 40 70 40c83 0 126 -87 126 -216zM225 210c0 76 -12 124 -45 124c-34 0 -46 -43 -46 -128c0 -81 17 -118 45 -118c31 0 46 40 46 122z" />
    <glyph glyph-name="seven" unicode="7" horiz-adv-x="343" 
d="M317 602c-117 -192 -128 -342 -128 -602h-108c0 191 13 408 130 599h-196v101h302v-98z" />
    <glyph glyph-name="eight" unicode="8" horiz-adv-x="352" 
d="M326 209c0 -148 -57 -220 -152 -220c-90 0 -148 75 -148 219c0 94 26 142 65 175c-33 27 -59 72 -59 143c0 101 52 185 144 185c99 0 145 -88 145 -184c0 -71 -26 -113 -60 -142c40 -32 65 -83 65 -176zM215 522c0 65 -15 90 -39 90s-39 -22 -39 -87c0 -52 14 -91 39 -91
s39 37 39 88zM219 210c0 87 -17 122 -44 122s-42 -36 -42 -120c0 -90 16 -122 44 -122c26 0 42 29 42 120z" />
    <glyph glyph-name="nine" unicode="9" horiz-adv-x="355" 
d="M327 471c0 -272 -90 -404 -199 -487l-65 82c86 58 140 147 155 242c-16 -23 -39 -40 -70 -40c-83 0 -126 87 -126 216c0 140 56 227 157 227c94 0 148 -82 148 -240zM221 494c0 81 -17 118 -44 118c-32 0 -47 -40 -47 -122c0 -76 13 -124 45 -124c35 0 46 43 46 128z" />
    <glyph glyph-name="colon" unicode=":" horiz-adv-x="205" 
d="M171 469c0 -39 -28 -68 -67 -68s-67 29 -67 68s28 67 67 67s67 -28 67 -67zM171 56c0 -39 -28 -67 -67 -67s-67 28 -67 67s28 68 67 68s67 -29 67 -68z" />
    <glyph glyph-name="semicolon" unicode=";" horiz-adv-x="205" 
d="M171 469c0 -39 -28 -68 -67 -68s-67 29 -67 68c0 38 28 67 67 67s67 -29 67 -67zM163 118l-64 -223h-65l14 223h115z" />
    <glyph glyph-name="less" unicode="&#x3c;" horiz-adv-x="264" 
d="M233 98l-210 196v100l210 196v-137l-125 -108l125 -109v-138z" />
    <glyph glyph-name="equal" unicode="=" horiz-adv-x="399" 
d="M350 390h-301v104h301v-104zM350 194h-301v104h301v-104z" />
    <glyph glyph-name="greater" unicode="&#x3e;" horiz-adv-x="264" 
d="M241 294l-210 -196v137l125 108l-125 109v138l210 -196v-100z" />
    <glyph glyph-name="question" unicode="?" horiz-adv-x="327" 
d="M309 548c0 -73 -21 -120 -63 -176c-46 -63 -54 -94 -54 -188h-98c0 117 12 165 64 236c32 44 46 77 46 122c0 44 -12 68 -40 68c-31 0 -41 -23 -55 -85l-99 28c19 98 64 158 156 158c95 0 143 -67 143 -163zM209 55c0 -38 -27 -66 -66 -66c-38 0 -65 28 -65 66
s27 66 65 66c39 0 66 -28 66 -66z" />
    <glyph glyph-name="at" unicode="@" horiz-adv-x="483" 
d="M455 360c0 -160 -33 -206 -91 -206c-37 0 -59 16 -74 37c-22 -26 -44 -39 -72 -39c-51 0 -75 45 -75 130c0 89 28 132 78 132c20 0 31 -4 45 -14v51c0 33 -6 46 -31 46c-17 0 -32 -7 -54 -25l-27 48c25 24 59 41 92 41c54 0 83 -26 83 -100v-195c0 -41 9 -60 32 -60
c26 0 39 29 39 155c0 196 -60 298 -158 298c-107 0 -159 -110 -159 -308c0 -199 51 -310 162 -310c30 0 58 12 79 28l25 -42c-28 -23 -66 -38 -107 -38c-136 0 -214 135 -214 361s78 361 214 361c137 0 213 -143 213 -351zM266 232v109c-9 7 -15 10 -29 10
c-22 0 -30 -17 -30 -68c0 -48 9 -68 29 -68c13 0 22 8 30 17z" />
    <glyph glyph-name="A" unicode="A" horiz-adv-x="367" 
d="M355 0h-112l-19 154h-82l-18 -154h-111l111 700h120zM213 255l-16 128c-6 50 -13 107 -16 162c-2 -55 -9 -113 -15 -163l-15 -127h62z" />
    <glyph glyph-name="B" unicode="B" horiz-adv-x="375" 
d="M349 205c0 -129 -56 -205 -171 -205h-133v700h135c103 0 163 -59 163 -187c0 -77 -28 -123 -78 -149c51 -25 84 -69 84 -159zM232 510c0 71 -18 95 -56 95h-23v-196h24c35 0 55 27 55 101zM237 204c0 82 -18 113 -64 113h-20v-222h24c44 0 60 31 60 109z" />
    <glyph glyph-name="C" unicode="C" horiz-adv-x="371" 
d="M346 199c-15 -134 -47 -210 -155 -210c-119 0 -161 109 -161 359c0 249 40 363 163 363c109 0 145 -88 151 -213l-110 -16c-7 93 -13 126 -42 126c-35 0 -47 -39 -47 -256c0 -218 13 -260 50 -260c25 0 33 23 43 123z" />
    <glyph glyph-name="D" unicode="D" horiz-adv-x="386" 
d="M357 355c0 -240 -57 -355 -184 -355h-128v700h139c136 0 173 -128 173 -345zM242 354c0 205 -20 248 -67 248h-19v-505h17c45 0 69 45 69 257z" />
    <glyph glyph-name="E" unicode="E" horiz-adv-x="336" 
d="M316 0h-271v700h262v-104h-150v-175h115v-104h-115v-213h159v-104z" />
    <glyph glyph-name="F" unicode="F" horiz-adv-x="331" 
d="M311 596h-154v-175h116v-104h-116v-317h-112v700h266v-104z" />
    <glyph glyph-name="G" unicode="G" horiz-adv-x="382" 
d="M350 216c0 -123 -38 -227 -157 -227c-127 0 -163 125 -163 361c0 247 40 361 164 361c106 0 143 -85 150 -209l-110 -18c-7 90 -13 124 -41 124c-37 0 -48 -41 -48 -258c0 -200 9 -259 51 -259c33 0 46 29 46 106v69h-50v98h158v-148z" />
    <glyph glyph-name="H" unicode="H" horiz-adv-x="405" 
d="M361 0h-112v321h-92v-321h-112v700h112v-275h92v275h112v-700z" />
    <glyph glyph-name="I" unicode="I" horiz-adv-x="206" 
d="M159 0h-112v700h112v-700z" />
    <glyph glyph-name="J" unicode="J" horiz-adv-x="354" 
d="M312 185c0 -135 -51 -196 -151 -196c-107 0 -143 79 -150 186l107 22c6 -82 17 -105 45 -105c26 0 36 22 36 84v524h113v-515z" />
    <glyph glyph-name="K" unicode="K" horiz-adv-x="370" 
d="M358 0h-116l-69 316l-17 -46v-270h-111v700h111v-129c0 -52 -1 -102 -2 -144c10 42 30 109 44 149l43 124h115l-99 -260z" />
    <glyph glyph-name="L" unicode="L" horiz-adv-x="308" 
d="M290 0h-245v700h112v-596h133v-104z" />
    <glyph glyph-name="M" unicode="M" horiz-adv-x="477" 
d="M433 0h-100v183c0 85 3 166 5 238c-10 -55 -32 -159 -50 -230l-50 -212l-49 212c-17 68 -39 177 -49 230c1 -66 5 -156 5 -238v-183h-100v700h110l46 -213c15 -63 31 -144 37 -201c6 57 23 139 38 202l47 212h110v-700z" />
    <glyph glyph-name="N" unicode="N" horiz-adv-x="406" 
d="M361 0h-85l-68 215c-21 69 -49 167 -62 219c1 -51 3 -146 3 -208v-226h-104v700h101l55 -171c19 -57 46 -148 59 -201c-1 48 -3 144 -3 196v176h104v-700z" />
    <glyph glyph-name="O" unicode="O" horiz-adv-x="386" 
d="M357 352c0 -244 -40 -363 -166 -363c-123 0 -161 117 -161 359c0 244 39 363 163 363s164 -120 164 -359zM241 348c0 214 -13 260 -49 260c-37 0 -47 -44 -47 -256c0 -214 13 -260 48 -260c36 0 48 44 48 256z" />
    <glyph glyph-name="P" unicode="P" horiz-adv-x="366" 
d="M349 502c0 -148 -73 -210 -164 -210h-29v-292h-111v700h147c85 0 157 -49 157 -198zM236 497c0 79 -15 108 -54 108h-26v-217h23c38 0 57 32 57 109z" />
    <glyph glyph-name="Q" unicode="Q" horiz-adv-x="386" 
d="M358 34l-66 -62l-28 38c-21 -14 -45 -21 -73 -21c-123 0 -161 117 -161 359c0 244 39 363 163 363s164 -120 164 -359c0 -124 -13 -216 -41 -276zM241 348c0 214 -13 260 -49 260c-37 0 -47 -44 -47 -256c0 -214 13 -266 48 -266h13l-33 44l45 43l20 -20c3 38 3 99 3 195
z" />
    <glyph glyph-name="R" unicode="R" horiz-adv-x="382" 
d="M356 0h-114l-58 308h-28v-308h-111v700h146c87 0 158 -47 158 -193c0 -81 -23 -136 -62 -167zM236 502c0 77 -15 103 -54 103h-26v-205h23c38 0 57 28 57 102z" />
    <glyph glyph-name="S" unicode="S" horiz-adv-x="349" 
d="M326 164c0 -103 -54 -175 -149 -175c-100 0 -145 70 -155 189l107 19c8 -85 23 -106 48 -106c28 0 40 18 40 63c0 67 -21 98 -84 168c-71 72 -106 138 -106 218c0 98 48 171 144 171c98 0 137 -66 150 -169l-105 -22c-8 69 -20 90 -45 90c-24 0 -36 -17 -36 -61
c0 -49 17 -78 72 -137c81 -82 119 -152 119 -248z" />
    <glyph glyph-name="T" unicode="T" horiz-adv-x="328" 
d="M315 596h-95v-596h-112v596h-94v104h301v-104z" />
    <glyph glyph-name="U" unicode="U" horiz-adv-x="402" 
d="M359 179c0 -122 -50 -190 -159 -190c-101 0 -157 70 -157 183v528h112v-529c0 -58 16 -79 47 -79c33 0 45 21 45 78v530h112v-521z" />
    <glyph glyph-name="V" unicode="V" horiz-adv-x="363" 
d="M350 700l-113 -700h-111l-113 700h114l41 -342c7 -60 12 -133 16 -185c3 52 7 125 14 186l37 341h115z" />
    <glyph glyph-name="W" unicode="W" horiz-adv-x="482" 
d="M469 700l-84 -700h-94l-25 185c-10 72 -20 166 -25 225c-4 -59 -14 -152 -24 -224l-26 -186h-94l-83 700h103l23 -229c6 -56 11 -142 14 -208c5 66 13 152 19 208l25 229h86l26 -229c6 -56 14 -142 19 -208c3 66 9 152 14 208l22 229h104z" />
    <glyph glyph-name="X" unicode="X" horiz-adv-x="347" 
d="M337 0h-114l-23 101c-12 54 -22 102 -27 144c-7 -41 -17 -89 -29 -145l-22 -100h-111l105 359l-99 341h114l19 -83c10 -45 20 -93 25 -139c6 46 16 94 26 138l19 84h110l-99 -336z" />
    <glyph glyph-name="Y" unicode="Y" horiz-adv-x="368" 
d="M361 700l-117 -404v-296h-113v291l-124 409h122l29 -133c14 -66 25 -124 31 -176c5 52 15 110 28 176l27 133h117z" />
    <glyph glyph-name="Z" unicode="Z" horiz-adv-x="322" 
d="M295 0h-269v96l117 375c13 41 33 103 42 129c-18 0 -47 -1 -76 -1h-73v101h259v-96l-116 -371c-13 -43 -33 -106 -42 -133c18 0 43 1 73 1h85v-101z" />
    <glyph glyph-name="bracketleft" unicode="[" horiz-adv-x="272" 
d="M236 -93h-191v793h191v-95h-85v-603h85v-95z" />
    <glyph glyph-name="backslash" unicode="\" horiz-adv-x="277" 
d="M288 -90h-103l-196 880h103z" />
    <glyph glyph-name="bracketright" unicode="]" horiz-adv-x="272" 
d="M228 -93h-191v95h84v603h-84v95h191v-793z" />
    <glyph glyph-name="asciicircum" unicode="^" horiz-adv-x="344" 
d="M326 382h-110l-45 198l-43 -198h-109l106 318h94z" />
    <glyph glyph-name="underscore" unicode="_" horiz-adv-x="245" 
d="M245 -169h-245v94h245v-94z" />
    <glyph glyph-name="grave" unicode="`" horiz-adv-x="330" 
d="M246 589h-73l-123 160h123z" />
    <glyph glyph-name="a" unicode="a" horiz-adv-x="339" 
d="M307 0h-109v25c-21 -24 -41 -36 -73 -36c-70 0 -106 57 -106 173c0 115 39 176 120 176c26 0 45 -7 59 -16v63c0 38 -11 52 -40 52c-26 0 -48 -14 -79 -40l-44 78c37 34 87 61 138 61c89 0 134 -37 134 -140v-396zM198 96v143c-11 7 -20 10 -38 10c-26 0 -38 -23 -38 -85
c0 -58 11 -84 40 -84c14 0 27 5 36 16z" />
    <glyph glyph-name="b" unicode="b" horiz-adv-x="352" 
d="M325 266c0 -187 -35 -277 -113 -277c-27 0 -52 14 -71 34v-23h-106v682l106 47v-229c16 20 40 36 72 36c88 0 112 -101 112 -270zM218 262c0 135 -9 177 -39 177c-15 0 -28 -8 -38 -18v-315c10 -10 22 -18 39 -18c28 0 38 33 38 174z" />
    <glyph glyph-name="c" unicode="c" horiz-adv-x="329" 
d="M310 148c-18 -104 -60 -159 -136 -159c-91 0 -149 72 -149 270c0 200 49 277 152 277c86 0 120 -72 131 -161l-98 -27c-6 60 -13 89 -36 89c-36 0 -42 -55 -42 -176c0 -124 6 -173 43 -173c20 0 29 21 40 90z" />
    <glyph glyph-name="d" unicode="d" horiz-adv-x="352" 
d="M317 0h-106v25c-16 -20 -40 -36 -72 -36c-88 0 -112 101 -112 270c0 187 34 277 113 277c27 0 52 -14 71 -34v180l106 47v-729zM211 104v315c-10 10 -22 18 -39 18c-29 0 -38 -33 -38 -174c0 -135 8 -177 40 -177c14 0 27 8 37 18z" />
    <glyph glyph-name="e" unicode="e" horiz-adv-x="337" 
d="M313 229h-186c2 -110 16 -145 46 -145c22 0 30 17 45 71l92 -31c-25 -80 -56 -135 -141 -135c-105 0 -144 108 -144 270c0 178 40 277 148 277c95 0 140 -96 140 -275v-32zM211 313c-2 88 -14 133 -41 133s-39 -34 -42 -133h83z" />
    <glyph glyph-name="f" unicode="f" horiz-adv-x="229" 
d="M230 622c-10 4 -23 6 -37 6c-22 0 -34 -13 -34 -40v-63h57v-99h-57v-426h-105v426h-39v99h39v78c0 83 48 123 107 123c35 0 50 -1 69 -7v-97z" />
    <glyph glyph-name="g" unicode="g" horiz-adv-x="352" 
d="M317 37c0 -150 -57 -206 -201 -230l-24 84c97 20 119 46 119 125v9c-16 -20 -40 -36 -72 -36c-88 0 -112 101 -112 270c0 187 34 277 113 277c27 0 52 -14 71 -34v23h106v-488zM211 104v315c-10 10 -22 18 -39 18c-29 0 -38 -33 -38 -174c0 -135 8 -177 40 -177
c14 0 27 8 37 18z" />
    <glyph glyph-name="h" unicode="h" horiz-adv-x="349" 
d="M316 0h-106v388c0 33 -6 50 -26 50c-17 0 -29 -6 -43 -17v-421h-106v682l106 47v-230c21 21 44 37 83 37c63 0 92 -34 92 -132v-404z" />
    <glyph glyph-name="i" unicode="i" horiz-adv-x="182" 
d="M153 662c0 -35 -27 -63 -62 -63s-62 28 -62 63c0 36 27 64 62 64s62 -28 62 -64zM144 0h-107v525h107v-525z" />
    <glyph glyph-name="j" unicode="j" horiz-adv-x="182" 
d="M153 662c0 -35 -27 -63 -62 -63s-62 28 -62 63c0 36 27 64 62 64s62 -28 62 -64zM144 -7c0 -138 -55 -168 -165 -186l-19 85c63 14 77 28 77 89v544h107v-532z" />
    <glyph glyph-name="k" unicode="k" horiz-adv-x="339" 
d="M330 0h-110l-54 232l-25 -52v-180h-106v682l106 47v-256c0 -48 -1 -107 -3 -146c11 35 40 109 56 147l22 51h109l-86 -177z" />
    <glyph glyph-name="l" unicode="l" horiz-adv-x="182" 
d="M144 0h-107v682l107 47v-729z" />
    <glyph glyph-name="m" unicode="m" horiz-adv-x="518" 
d="M486 0h-106v390c0 32 -5 48 -25 48c-16 0 -29 -7 -42 -17v-421h-106v390c0 32 -5 48 -24 48c-17 0 -29 -7 -42 -17v-421h-106v525h106v-26c19 20 43 37 81 37c42 0 62 -11 81 -40c28 26 57 40 92 40c62 0 91 -34 91 -129v-407z" />
    <glyph glyph-name="n" unicode="n" horiz-adv-x="349" 
d="M316 0h-106v388c0 33 -6 50 -26 50c-17 0 -29 -6 -43 -17v-421h-106v525h106v-26c21 21 44 37 83 37c63 0 92 -34 92 -132v-404z" />
    <glyph glyph-name="o" unicode="o" horiz-adv-x="351" 
d="M326 264c0 -166 -34 -275 -152 -275c-110 0 -149 106 -149 271c0 161 29 276 153 276c113 0 148 -109 148 -272zM220 261c0 117 -7 178 -44 178c-39 0 -44 -64 -44 -175c0 -114 3 -178 45 -178c38 0 43 64 43 175z" />
    <glyph glyph-name="p" unicode="p" horiz-adv-x="352" 
d="M325 266c0 -187 -35 -277 -113 -277c-27 0 -52 14 -71 34v-168l-106 -48v718h106v-25c16 20 40 36 72 36c88 0 112 -101 112 -270zM218 262c0 135 -9 177 -39 177c-15 0 -28 -8 -38 -18v-315c10 -10 22 -18 39 -18c28 0 38 33 38 174z" />
    <glyph glyph-name="q" unicode="q" horiz-adv-x="352" 
d="M317 -146l-106 -47v218c-16 -20 -40 -36 -72 -36c-88 0 -112 101 -112 270c0 187 34 277 113 277c27 0 52 -14 71 -34v23h106v-671zM211 104v315c-10 10 -22 18 -39 18c-29 0 -38 -33 -38 -174c0 -135 8 -177 40 -177c14 0 27 8 37 18z" />
    <glyph glyph-name="r" unicode="r" horiz-adv-x="263" 
d="M254 526l-14 -115c-16 13 -30 19 -53 19c-19 0 -34 -7 -46 -20v-410h-106v525h106v-26c18 22 40 37 68 37c25 0 35 -4 45 -10z" />
    <glyph glyph-name="s" unicode="s" horiz-adv-x="314" 
d="M293 130c0 -90 -59 -141 -141 -141c-80 0 -115 54 -133 131l91 34c12 -49 25 -75 47 -75c23 0 37 16 37 42c0 43 -13 64 -62 100c-83 60 -108 108 -108 176c0 82 48 139 132 139c75 0 109 -45 130 -118l-90 -34c-11 38 -23 62 -43 62s-32 -15 -32 -38
c0 -38 15 -55 65 -92c87 -64 107 -113 107 -186z" />
    <glyph glyph-name="t" unicode="t" horiz-adv-x="251" 
d="M232 105l-10 -99c-22 -11 -43 -17 -72 -17c-66 0 -98 39 -98 118v319h-39v99h39v157l106 47v-204h69v-99h-69v-294c0 -28 9 -42 27 -42c19 0 30 5 47 15z" />
    <glyph glyph-name="u" unicode="u" horiz-adv-x="349" 
d="M314 0h-106v26c-21 -21 -44 -37 -83 -37c-63 0 -93 34 -93 132v404h106v-388c0 -33 7 -50 27 -50c17 0 29 6 43 17v421h106v-525z" />
    <glyph glyph-name="v" unicode="v" horiz-adv-x="332" 
d="M322 525l-102 -525h-108l-102 525h110l20 -141c10 -71 23 -182 27 -255c4 73 16 184 26 255l20 141h109z" />
    <glyph glyph-name="w" unicode="w" horiz-adv-x="462" 
d="M448 525l-66 -525h-106l-16 114c-12 87 -23 187 -29 257c-7 -70 -18 -171 -30 -257l-16 -114h-104l-67 525h99l7 -92c5 -63 16 -205 18 -267c4 62 21 205 30 266l13 93h102l13 -93c9 -61 25 -204 29 -266c3 62 14 206 19 267l7 92h97z" />
    <glyph glyph-name="x" unicode="x" horiz-adv-x="330" 
d="M319 0h-110l-13 52c-10 39 -23 98 -31 140c-8 -42 -21 -102 -31 -140l-13 -52h-111l96 271l-87 254h109l6 -22c11 -39 23 -97 31 -140c7 43 20 101 31 140l6 22h109l-88 -251z" />
    <glyph glyph-name="y" unicode="y" horiz-adv-x="338" 
d="M328 525l-149 -710h-105l45 178l-109 532h110l20 -141c10 -73 23 -183 28 -255c4 72 19 183 30 255l21 141h109z" />
    <glyph glyph-name="z" unicode="z" horiz-adv-x="301" 
d="M274 0h-254v88l103 246c14 33 32 74 43 97c-20 -1 -43 -1 -71 -1h-61v95h240v-88l-102 -246c-13 -32 -32 -74 -44 -97c20 1 43 1 71 1h75v-95z" />
    <glyph glyph-name="braceleft" unicode="{" horiz-adv-x="287" 
d="M266 -110c-142 2 -182 64 -182 195v87c0 62 -21 81 -47 81h-26v95h26c26 0 47 19 47 81v87c0 131 40 193 182 195v-89c-63 -9 -76 -27 -76 -97v-68c0 -94 -14 -135 -76 -156c62 -22 76 -63 76 -157v-68c0 -70 13 -88 76 -97v-89z" />
    <glyph glyph-name="bar" unicode="|" horiz-adv-x="208" 
d="M156 -185h-104v985h104v-985z" />
    <glyph glyph-name="braceright" unicode="}" horiz-adv-x="287" 
d="M276 253h-26c-27 0 -47 -19 -47 -81v-87c0 -131 -40 -193 -182 -195v89c63 9 76 27 76 97v68c0 94 14 135 76 156c-62 22 -76 63 -76 157v68c0 70 -13 88 -76 97v89c142 -2 182 -64 182 -195v-87c0 -62 20 -81 47 -81h26v-95z" />
    <glyph glyph-name="asciitilde" unicode="~" horiz-adv-x="352" 
d="M335 434c-19 -93 -50 -135 -103 -135c-36 0 -54 14 -80 43c-12 13 -18 19 -27 19c-12 0 -16 -5 -31 -64l-77 18c19 93 50 134 103 134c37 0 53 -14 80 -42c12 -13 19 -19 27 -19c12 0 17 5 31 63z" />
    <glyph glyph-name="Adieresis" unicode="&#xc4;" horiz-adv-x="367" 
d="M355 0h-112l-19 154h-82l-18 -154h-111l111 700h120zM213 255l-16 128c-6 50 -13 107 -16 162c-2 -55 -9 -113 -15 -163l-15 -127h62zM324 801c0 -34 -28 -62 -61 -62c-34 0 -62 28 -62 62c0 33 28 61 62 61c33 0 61 -28 61 -61zM167 801c0 -34 -28 -62 -61 -62
c-35 0 -62 28 -62 62c0 33 27 61 62 61c33 0 61 -28 61 -61z" />
    <glyph glyph-name="Aring" unicode="&#xc5;" horiz-adv-x="367" 
d="M355 0h-112l-19 154h-82l-18 -154h-111l104 654c-21 18 -33 45 -33 76c0 57 42 100 100 100s100 -43 100 -100c0 -31 -12 -58 -33 -76zM228 730c0 26 -19 46 -44 46s-44 -20 -44 -46c0 -27 19 -47 44 -47s44 20 44 47zM213 255l-16 128c-6 50 -13 107 -16 162
c-2 -55 -9 -113 -15 -163l-15 -127h62z" />
    <glyph glyph-name="Ccedilla" unicode="&#xc7;" horiz-adv-x="371" 
d="M346 199c-14 -129 -44 -204 -143 -210l-13 -39c8 5 21 9 38 9c31 0 60 -26 60 -72c0 -55 -42 -80 -93 -80c-33 0 -67 13 -91 30l19 33c25 -15 42 -22 63 -22c24 0 38 15 38 38c0 21 -11 29 -25 29c-10 0 -20 -3 -29 -11l-32 19l24 68c-97 18 -132 129 -132 357
c0 249 40 363 163 363c109 0 145 -88 151 -213l-110 -16c-5 89 -13 126 -42 126c-35 0 -47 -39 -47 -256c0 -218 13 -260 50 -260c25 0 35 25 43 123z" />
    <glyph glyph-name="Eacute" unicode="&#xc9;" horiz-adv-x="336" 
d="M316 0h-271v700h262v-104h-150v-175h115v-104h-115v-213h159v-104zM320 899l-123 -160h-73l73 160h123z" />
    <glyph glyph-name="Ntilde" unicode="&#xd1;" horiz-adv-x="406" 
d="M361 0h-85l-68 215c-21 69 -49 167 -62 219c1 -51 3 -146 3 -208v-226h-104v700h101l55 -171c19 -57 46 -148 59 -201c-1 48 -3 144 -3 196v176h104v-700zM352 867c0 -91 -38 -127 -83 -127c-26 0 -45 8 -69 27c-20 17 -28 24 -40 24c-15 0 -22 -10 -25 -48h-71
c0 91 38 127 83 127c26 0 45 -8 69 -27c20 -17 29 -24 40 -24c15 0 22 11 25 48h71z" />
    <glyph glyph-name="Odieresis" unicode="&#xd6;" horiz-adv-x="386" 
d="M357 352c0 -244 -40 -363 -166 -363c-123 0 -161 117 -161 359c0 244 39 363 163 363s164 -120 164 -359zM241 348c0 214 -13 260 -49 260c-37 0 -47 -44 -47 -256c0 -214 13 -260 48 -260c36 0 48 44 48 256zM333 801c0 -34 -28 -62 -61 -62c-34 0 -62 28 -62 62
c0 33 28 61 62 61c33 0 61 -28 61 -61zM176 801c0 -34 -28 -62 -61 -62c-35 0 -62 28 -62 62c0 33 27 61 62 61c33 0 61 -28 61 -61z" />
    <glyph glyph-name="Udieresis" unicode="&#xdc;" horiz-adv-x="402" 
d="M359 179c0 -122 -50 -190 -159 -190c-101 0 -157 70 -157 183v528h112v-529c0 -58 16 -79 47 -79c33 0 45 21 45 78v530h112v-521zM341 801c0 -34 -28 -62 -61 -62c-34 0 -62 28 -62 62c0 33 28 61 62 61c33 0 61 -28 61 -61zM184 801c0 -34 -28 -62 -61 -62
c-35 0 -62 28 -62 62c0 33 27 61 62 61c33 0 61 -28 61 -61z" />
    <glyph glyph-name="aacute" unicode="&#xe1;" horiz-adv-x="339" 
d="M307 0h-109v25c-21 -24 -41 -36 -73 -36c-70 0 -106 57 -106 173c0 115 39 176 120 176c26 0 45 -7 59 -16v63c0 38 -11 52 -40 52c-26 0 -48 -14 -79 -40l-44 78c37 34 87 61 138 61c89 0 134 -37 134 -140v-396zM198 96v143c-11 7 -20 10 -38 10c-26 0 -38 -23 -38 -85
c0 -58 11 -84 40 -84c14 0 27 5 36 16zM316 749l-123 -160h-73l73 160h123z" />
    <glyph glyph-name="agrave" unicode="&#xe0;" horiz-adv-x="339" 
d="M307 0h-109v25c-21 -24 -41 -36 -73 -36c-70 0 -106 57 -106 173c0 115 39 176 120 176c26 0 45 -7 59 -16v63c0 38 -11 52 -40 52c-26 0 -48 -14 -79 -40l-44 78c37 34 87 61 138 61c89 0 134 -37 134 -140v-396zM198 96v143c-11 7 -20 10 -38 10c-26 0 -38 -23 -38 -85
c0 -58 11 -84 40 -84c14 0 27 5 36 16zM232 589h-73l-123 160h123z" />
    <glyph glyph-name="acircumflex" unicode="&#xe2;" horiz-adv-x="339" 
d="M307 0h-109v25c-21 -24 -41 -36 -73 -36c-70 0 -106 57 -106 173c0 115 39 176 120 176c26 0 45 -7 59 -16v63c0 38 -11 52 -40 52c-26 0 -48 -14 -79 -40l-44 78c37 34 87 61 138 61c89 0 134 -37 134 -140v-396zM198 96v143c-11 7 -20 10 -38 10c-26 0 -38 -23 -38 -85
c0 -58 11 -84 40 -84c14 0 27 5 36 16zM297 584h-77l-50 78l-50 -78h-75l87 160h78z" />
    <glyph glyph-name="adieresis" unicode="&#xe4;" horiz-adv-x="339" 
d="M307 0h-109v25c-21 -24 -41 -36 -73 -36c-70 0 -106 57 -106 173c0 115 39 176 120 176c26 0 45 -7 59 -16v63c0 38 -11 52 -40 52c-26 0 -48 -14 -79 -40l-44 78c37 34 87 61 138 61c89 0 134 -37 134 -140v-396zM198 96v143c-11 7 -20 10 -38 10c-26 0 -38 -23 -38 -85
c0 -58 11 -84 40 -84c14 0 27 5 36 16zM313 646c0 -34 -28 -62 -61 -62c-34 0 -62 28 -62 62c0 33 28 61 62 61c33 0 61 -28 61 -61zM156 646c0 -34 -28 -62 -61 -62c-35 0 -62 28 -62 62c0 33 27 61 62 61c33 0 61 -28 61 -61z" />
    <glyph glyph-name="atilde" unicode="&#xe3;" horiz-adv-x="339" 
d="M307 0h-109v25c-21 -24 -41 -36 -73 -36c-70 0 -106 57 -106 173c0 115 39 176 120 176c26 0 45 -7 59 -16v63c0 38 -11 52 -40 52c-26 0 -48 -14 -79 -40l-44 78c37 34 87 61 138 61c89 0 134 -37 134 -140v-396zM198 96v143c-11 7 -20 10 -38 10c-26 0 -38 -23 -38 -85
c0 -58 11 -84 40 -84c14 0 27 5 36 16zM318 715c0 -91 -38 -127 -83 -127c-26 0 -45 8 -69 27c-20 17 -28 24 -40 24c-15 0 -22 -10 -25 -48h-71c0 91 38 127 83 127c26 0 45 -8 69 -27c20 -17 29 -24 40 -24c15 0 22 11 25 48h71z" />
    <glyph glyph-name="aring" unicode="&#xe5;" horiz-adv-x="339" 
d="M307 0h-109v25c-21 -24 -41 -36 -73 -36c-70 0 -106 57 -106 173c0 115 39 176 120 176c26 0 45 -7 59 -16v63c0 38 -11 52 -40 52c-26 0 -48 -14 -79 -40l-44 78c37 34 87 61 138 61c89 0 134 -37 134 -140v-396zM198 96v143c-11 7 -20 10 -38 10c-26 0 -38 -23 -38 -85
c0 -58 11 -84 40 -84c14 0 27 5 36 16zM273 690c0 -57 -42 -100 -100 -100s-100 43 -100 100s42 100 100 100s100 -43 100 -100zM217 690c0 26 -19 46 -44 46s-44 -20 -44 -46c0 -27 19 -47 44 -47s44 20 44 47z" />
    <glyph glyph-name="ccedilla" unicode="&#xe7;" horiz-adv-x="329" 
d="M310 148c-17 -100 -57 -155 -128 -159l-14 -38c9 5 22 9 39 9c31 0 60 -26 60 -73c0 -54 -42 -80 -94 -80c-33 0 -67 14 -91 31l19 33c25 -16 42 -22 63 -22c23 0 38 15 38 37c0 21 -12 29 -25 29c-10 0 -19 -4 -28 -11l-34 20l25 69c-71 17 -115 93 -115 266
c0 200 49 277 152 277c86 0 120 -72 131 -161l-98 -27c-6 60 -13 89 -36 89c-36 0 -42 -55 -42 -176c0 -124 6 -173 43 -173c20 0 29 21 40 90z" />
    <glyph glyph-name="eacute" unicode="&#xe9;" horiz-adv-x="337" 
d="M313 229h-186c2 -110 16 -145 46 -145c22 0 30 17 45 71l92 -31c-25 -80 -56 -135 -141 -135c-105 0 -144 108 -144 270c0 178 40 277 148 277c95 0 140 -96 140 -275v-32zM211 313c-2 88 -14 133 -41 133s-39 -34 -42 -133h83zM316 749l-123 -160h-73l73 160h123z" />
    <glyph glyph-name="egrave" unicode="&#xe8;" horiz-adv-x="337" 
d="M313 229h-186c2 -110 16 -145 46 -145c22 0 30 17 45 71l92 -31c-25 -80 -56 -135 -141 -135c-105 0 -144 108 -144 270c0 178 40 277 148 277c95 0 140 -96 140 -275v-32zM211 313c-2 88 -14 133 -41 133s-39 -34 -42 -133h83zM218 589h-73l-123 160h123z" />
    <glyph glyph-name="ecircumflex" unicode="&#xea;" horiz-adv-x="337" 
d="M313 229h-186c2 -110 16 -145 46 -145c22 0 30 17 45 71l92 -31c-25 -80 -56 -135 -141 -135c-105 0 -144 108 -144 270c0 178 40 277 148 277c95 0 140 -96 140 -275v-32zM211 313c-2 88 -14 133 -41 133s-39 -34 -42 -133h83zM296 579h-77l-50 78l-50 -78h-75l87 160
h78z" />
    <glyph glyph-name="edieresis" unicode="&#xeb;" horiz-adv-x="337" 
d="M313 229h-186c2 -110 16 -145 46 -145c22 0 30 17 45 71l92 -31c-25 -80 -56 -135 -141 -135c-105 0 -144 108 -144 270c0 178 40 277 148 277c95 0 140 -96 140 -275v-32zM211 313c-2 88 -14 133 -41 133s-39 -34 -42 -133h83zM310 646c0 -34 -28 -62 -61 -62
c-34 0 -62 28 -62 62c0 33 28 61 62 61c33 0 61 -28 61 -61zM153 646c0 -34 -28 -62 -61 -62c-35 0 -62 28 -62 62c0 33 27 61 62 61c33 0 61 -28 61 -61z" />
    <glyph glyph-name="iacute" unicode="&#xed;" horiz-adv-x="182" 
d="M144 0h-107v525h107v-525zM249 749l-123 -160h-73l73 160h123z" />
    <glyph glyph-name="igrave" unicode="&#xec;" horiz-adv-x="182" 
d="M144 0h-107v525h107v-525zM129 589h-73l-123 160h123z" />
    <glyph glyph-name="icircumflex" unicode="&#xee;" horiz-adv-x="182" 
d="M144 0h-107v525h107v-525zM216 574h-77l-50 78l-50 -78h-75l87 160h78z" />
    <glyph glyph-name="idieresis" unicode="&#xef;" horiz-adv-x="182" 
d="M144 0h-107v525h107v-525zM230 658c0 -34 -28 -62 -61 -62c-34 0 -62 28 -62 62c0 33 28 61 62 61c33 0 61 -28 61 -61zM73 658c0 -34 -28 -62 -61 -62c-35 0 -62 28 -62 62c0 33 27 61 62 61c33 0 61 -28 61 -61z" />
    <glyph glyph-name="ntilde" unicode="&#xf1;" horiz-adv-x="349" 
d="M316 0h-106v388c0 33 -6 50 -26 50c-17 0 -29 -6 -43 -17v-421h-106v525h106v-26c21 21 44 37 83 37c63 0 92 -34 92 -132v-404zM322 715c0 -91 -38 -127 -83 -127c-26 0 -45 8 -69 27c-20 17 -28 24 -40 24c-15 0 -22 -10 -25 -48h-71c0 91 38 127 83 127
c26 0 45 -8 69 -27c20 -17 29 -24 40 -24c15 0 22 11 25 48h71z" />
    <glyph glyph-name="oacute" unicode="&#xf3;" horiz-adv-x="351" 
d="M326 264c0 -166 -34 -275 -152 -275c-110 0 -149 106 -149 271c0 161 29 276 153 276c113 0 148 -109 148 -272zM220 261c0 117 -7 178 -44 178c-39 0 -44 -64 -44 -175c0 -114 3 -178 45 -178c38 0 43 64 43 175zM329 749l-123 -160h-73l73 160h123z" />
    <glyph glyph-name="ograve" unicode="&#xf2;" horiz-adv-x="351" 
d="M326 264c0 -166 -34 -275 -152 -275c-110 0 -149 106 -149 271c0 161 29 276 153 276c113 0 148 -109 148 -272zM220 261c0 117 -7 178 -44 178c-39 0 -44 -64 -44 -175c0 -114 3 -178 45 -178c38 0 43 64 43 175zM217 589h-73l-123 160h123z" />
    <glyph glyph-name="ocircumflex" unicode="&#xf4;" horiz-adv-x="351" 
d="M326 264c0 -166 -34 -275 -152 -275c-110 0 -149 106 -149 271c0 161 29 276 153 276c113 0 148 -109 148 -272zM220 261c0 117 -7 178 -44 178c-39 0 -44 -64 -44 -175c0 -114 3 -178 45 -178c38 0 43 64 43 175zM301 579h-77l-50 78l-50 -78h-75l87 160h78z" />
    <glyph glyph-name="odieresis" unicode="&#xf6;" horiz-adv-x="351" 
d="M326 264c0 -166 -34 -275 -152 -275c-110 0 -149 106 -149 271c0 161 29 276 153 276c113 0 148 -109 148 -272zM220 261c0 117 -7 178 -44 178c-39 0 -44 -64 -44 -175c0 -114 3 -178 45 -178c38 0 43 64 43 175zM316 641c0 -34 -28 -62 -61 -62c-34 0 -62 28 -62 62
c0 33 28 61 62 61c33 0 61 -28 61 -61zM159 641c0 -34 -28 -62 -61 -62c-35 0 -62 28 -62 62c0 33 27 61 62 61c33 0 61 -28 61 -61z" />
    <glyph glyph-name="otilde" unicode="&#xf5;" horiz-adv-x="351" 
d="M326 264c0 -166 -34 -275 -152 -275c-110 0 -149 106 -149 271c0 161 29 276 153 276c113 0 148 -109 148 -272zM220 261c0 117 -7 178 -44 178c-39 0 -44 -64 -44 -175c0 -114 3 -178 45 -178c38 0 43 64 43 175zM320 715c0 -91 -38 -127 -83 -127c-26 0 -45 8 -69 27
c-20 17 -28 24 -40 24c-15 0 -22 -10 -25 -48h-71c0 91 38 127 83 127c26 0 45 -8 69 -27c20 -17 29 -24 40 -24c15 0 22 11 25 48h71z" />
    <glyph glyph-name="uacute" unicode="&#xfa;" horiz-adv-x="349" 
d="M314 0h-106v26c-21 -21 -44 -37 -83 -37c-63 0 -93 34 -93 132v404h106v-388c0 -33 7 -50 27 -50c17 0 29 6 43 17v421h106v-525zM329 749l-123 -160h-73l73 160h123z" />
    <glyph glyph-name="ugrave" unicode="&#xf9;" horiz-adv-x="349" 
d="M314 0h-106v26c-21 -21 -44 -37 -83 -37c-63 0 -93 34 -93 132v404h106v-388c0 -33 7 -50 27 -50c17 0 29 6 43 17v421h106v-525zM217 589h-73l-123 160h123z" />
    <glyph glyph-name="ucircumflex" unicode="&#xfb;" horiz-adv-x="349" 
d="M314 0h-106v26c-21 -21 -44 -37 -83 -37c-63 0 -93 34 -93 132v404h106v-388c0 -33 7 -50 27 -50c17 0 29 6 43 17v421h106v-525zM299 589h-77l-50 78l-50 -78h-75l87 160h78z" />
    <glyph glyph-name="udieresis" unicode="&#xfc;" horiz-adv-x="349" 
d="M314 0h-106v26c-21 -21 -44 -37 -83 -37c-63 0 -93 34 -93 132v404h106v-388c0 -33 7 -50 27 -50c17 0 29 6 43 17v421h106v-525zM313 651c0 -34 -28 -62 -61 -62c-34 0 -62 28 -62 62c0 33 28 61 62 61c33 0 61 -28 61 -61zM156 651c0 -34 -28 -62 -61 -62
c-35 0 -62 28 -62 62c0 33 27 61 62 61c33 0 61 -28 61 -61z" />
    <glyph glyph-name="dagger" unicode="&#x2020;" horiz-adv-x="358" 
d="M340 380h-109v-480h-105v480h-108v101h108v219h105v-219h109v-101z" />
    <glyph glyph-name="degree" unicode="&#xb0;" horiz-adv-x="351" 
d="M325 559c0 -87 -62 -154 -149 -154s-149 67 -149 154c0 85 62 152 149 152s149 -67 149 -152zM249 559c0 46 -30 79 -73 79s-73 -33 -73 -79c0 -47 30 -82 73 -82s73 35 73 82z" />
    <glyph glyph-name="cent" unicode="&#xa2;" horiz-adv-x="329" 
d="M310 241c-13 -78 -40 -128 -85 -149v-103h-106v104c-59 27 -94 105 -94 259c0 158 31 239 94 266v96h106v-94c51 -22 74 -82 83 -152l-98 -27c-6 60 -13 89 -36 89c-36 0 -42 -55 -42 -176c0 -124 6 -173 43 -173c20 0 29 21 40 90z" />
    <glyph glyph-name="sterling" unicode="&#xa3;" horiz-adv-x="361" 
d="M336 534l-104 -17c-9 75 -21 98 -51 98c-29 0 -36 -27 -36 -68c0 -31 7 -68 16 -93s18 -53 24 -84h82v-90h-79c-3 -78 -22 -127 -49 -180h192v-100h-300v99c33 58 52 103 56 181h-50v90h42c-4 19 -11 39 -19 60c-12 30 -23 67 -23 111c0 94 46 170 147 170
c91 0 136 -60 152 -177z" />
    <glyph glyph-name="section" unicode="&#xa7;" horiz-adv-x="385" 
d="M355 268c0 -63 -24 -114 -59 -153c24 -30 39 -68 39 -118c0 -93 -49 -161 -144 -161c-88 0 -134 56 -150 172l104 16c11 -66 21 -92 49 -92c26 0 37 22 37 59c0 41 -15 69 -64 100c-75 47 -136 85 -136 188c0 63 24 114 58 153c-23 30 -38 68 -38 118
c0 93 48 161 144 161c87 0 133 -56 150 -172l-104 -16c-12 66 -21 92 -49 92c-27 0 -38 -22 -38 -59c0 -41 15 -69 65 -100c75 -47 136 -85 136 -188zM251 256c0 53 -28 80 -78 109c-6 4 -11 7 -16 9c-15 -23 -23 -50 -23 -83c0 -53 29 -80 79 -109c6 -4 10 -7 15 -10
c15 24 23 51 23 84z" />
    <glyph glyph-name="bullet" unicode="&#x2022;" horiz-adv-x="337" 
d="M285 366c0 -65 -51 -116 -117 -116c-65 0 -116 51 -116 116c0 66 51 118 116 118c66 0 117 -52 117 -118z" />
    <glyph glyph-name="paragraph" unicode="&#xb6;" horiz-adv-x="491" 
d="M444 -185h-86v808h-54v-808h-85v493h-16c-98 0 -176 67 -176 197c0 128 84 195 183 195h234v-885z" />
    <glyph glyph-name="germandbls" unicode="&#xdf;" horiz-adv-x="379" 
d="M354 226c0 -158 -46 -226 -173 -226h-7v95h7c47 0 59 28 59 124c0 107 -18 131 -59 131h-7v95h7c24 0 34 17 34 93c0 68 -9 95 -38 95c-28 0 -36 -23 -36 -78v-700l-106 -48v743c0 121 60 176 148 176c91 0 142 -66 142 -177c0 -84 -23 -120 -53 -146
c48 -22 82 -63 82 -177z" />
    <glyph glyph-name="registered" unicode="&#xae;" horiz-adv-x="483" 
d="M455 350c0 -215 -73 -361 -214 -361s-213 146 -213 361s72 361 213 361s214 -146 214 -361zM400 350c0 181 -46 309 -159 309s-158 -128 -158 -309s45 -309 158 -309s159 128 159 309zM340 161h-68l-34 174c-3 -1 -10 -1 -13 -1v-173h-66v396h84c51 0 93 -31 93 -109
c0 -44 -14 -75 -36 -93zM268 446c0 41 -9 57 -33 57h-10v-116h10c23 0 33 20 33 59z" />
    <glyph glyph-name="copyright" unicode="&#xa9;" horiz-adv-x="483" 
d="M455 350c0 -215 -73 -361 -214 -361s-213 146 -213 361s72 361 213 361s214 -146 214 -361zM400 350c0 181 -46 309 -159 309s-158 -128 -158 -309s45 -309 158 -309s159 128 159 309zM330 266c-10 -80 -32 -119 -90 -119c-66 0 -93 60 -93 204c0 142 28 204 94 204
c62 0 81 -47 88 -120l-65 -11c-6 56 -9 72 -24 72c-20 0 -24 -30 -24 -144c0 -118 5 -144 26 -144c13 0 19 11 24 71z" />
    <glyph glyph-name="trademark" unicode="&#x2122;" horiz-adv-x="469" 
d="M183 641h-53v-338h-65v338h-53v59h171v-59zM442 303h-58v129c0 36 1 68 2 96c-5 -25 -14 -65 -23 -99l-32 -137l-33 137c-8 34 -18 73 -22 98c0 -27 2 -60 2 -95v-129h-59v397h62l29 -125c8 -39 17 -77 21 -107c4 30 12 69 21 107l28 125h62v-397z" />
    <glyph glyph-name="acute" unicode="&#xb4;" horiz-adv-x="330" 
d="M280 749l-123 -160h-73l73 160h123z" />
    <glyph glyph-name="dieresis" unicode="&#xa8;" horiz-adv-x="330" 
d="M305 651c0 -34 -28 -62 -61 -62c-34 0 -62 28 -62 62c0 33 28 61 62 61c33 0 61 -28 61 -61zM148 651c0 -34 -28 -62 -61 -62c-35 0 -62 28 -62 62c0 33 27 61 62 61c33 0 61 -28 61 -61z" />
    <glyph glyph-name="notequal" unicode="&#x2260;" 
d="M588 351l-144 -118c-11 -9 -19 -10 -27 -6c-8 7 -10 15 -6 29l15 47h-79v-162l47 15c15 4 22 2 28 -6c5 -8 4 -16 -5 -27l-118 -144l-118 144c-8 11 -9 19 -5 27c6 8 13 10 29 6l47 -15v162h-79l14 -47c5 -15 3 -22 -6 -29c-7 -4 -16 -3 -27 6l-144 118l144 118
c11 8 20 9 27 5c9 -6 11 -14 6 -29l-14 -47h79v161l-47 -15c-16 -4 -23 -2 -29 6c-4 8 -3 16 5 27l118 144l118 -144c9 -11 10 -19 5 -27c-6 -8 -14 -10 -28 -6l-47 15v-161h79l-15 47c-4 15 -2 23 6 29c8 4 16 3 27 -5z" />
    <glyph glyph-name="AE" unicode="&#xc6;" horiz-adv-x="522" 
d="M502 0h-266v154h-87l-33 -154h-110l167 700h320v-104h-150v-175h115v-104h-115v-213h159v-104zM238 589c-7 -35 -17 -87 -26 -129l-42 -205h66v213c0 43 1 93 2 121z" />
    <glyph glyph-name="Oslash" unicode="&#xd8;" horiz-adv-x="386" 
d="M367 750l-42 -137c23 -60 32 -147 32 -261c0 -244 -40 -363 -166 -363c-20 0 -38 3 -54 10l-15 -49h-102l41 135c-22 60 -31 147 -31 263c0 244 39 363 163 363c21 0 40 -4 57 -11l15 50h102zM241 348c0 214 -13 260 -49 260c-37 0 -47 -44 -47 -256
c0 -214 13 -260 48 -260c36 0 48 44 48 256z" />
    <glyph glyph-name="infinity" unicode="&#x221e;" 
d="M588 351l-144 -118c-11 -9 -19 -10 -27 -6c-8 7 -10 15 -6 29l15 47h-79v-162l47 15c15 4 22 2 28 -6c5 -8 4 -16 -5 -27l-118 -144l-118 144c-8 11 -9 19 -5 27c6 8 13 10 29 6l47 -15v162h-79l14 -47c5 -15 3 -22 -6 -29c-7 -4 -16 -3 -27 6l-144 118l144 118
c11 8 20 9 27 5c9 -6 11 -14 6 -29l-14 -47h79v161l-47 -15c-16 -4 -23 -2 -29 6c-4 8 -3 16 5 27l118 144l118 -144c9 -11 10 -19 5 -27c-6 -8 -14 -10 -28 -6l-47 15v-161h79l-15 47c-4 15 -2 23 6 29c8 4 16 3 27 -5z" />
    <glyph glyph-name="plusminus" unicode="&#xb1;" 
d="M588 351l-144 -118c-11 -9 -19 -10 -27 -6c-8 7 -10 15 -6 29l15 47h-79v-162l47 15c15 4 22 2 28 -6c5 -8 4 -16 -5 -27l-118 -144l-118 144c-8 11 -9 19 -5 27c6 8 13 10 29 6l47 -15v162h-79l14 -47c5 -15 3 -22 -6 -29c-7 -4 -16 -3 -27 6l-144 118l144 118
c11 8 20 9 27 5c9 -6 11 -14 6 -29l-14 -47h79v161l-47 -15c-16 -4 -23 -2 -29 6c-4 8 -3 16 5 27l118 144l118 -144c9 -11 10 -19 5 -27c-6 -8 -14 -10 -28 -6l-47 15v-161h79l-15 47c-4 15 -2 23 6 29c8 4 16 3 27 -5z" />
    <glyph glyph-name="lessequal" unicode="&#x2264;" 
d="M588 351l-144 -118c-11 -9 -19 -10 -27 -6c-8 7 -10 15 -6 29l15 47h-79v-162l47 15c15 4 22 2 28 -6c5 -8 4 -16 -5 -27l-118 -144l-118 144c-8 11 -9 19 -5 27c6 8 13 10 29 6l47 -15v162h-79l14 -47c5 -15 3 -22 -6 -29c-7 -4 -16 -3 -27 6l-144 118l144 118
c11 8 20 9 27 5c9 -6 11 -14 6 -29l-14 -47h79v161l-47 -15c-16 -4 -23 -2 -29 6c-4 8 -3 16 5 27l118 144l118 -144c9 -11 10 -19 5 -27c-6 -8 -14 -10 -28 -6l-47 15v-161h79l-15 47c-4 15 -2 23 6 29c8 4 16 3 27 -5z" />
    <glyph glyph-name="greaterequal" unicode="&#x2265;" 
d="M588 351l-144 -118c-11 -9 -19 -10 -27 -6c-8 7 -10 15 -6 29l15 47h-79v-162l47 15c15 4 22 2 28 -6c5 -8 4 -16 -5 -27l-118 -144l-118 144c-8 11 -9 19 -5 27c6 8 13 10 29 6l47 -15v162h-79l14 -47c5 -15 3 -22 -6 -29c-7 -4 -16 -3 -27 6l-144 118l144 118
c11 8 20 9 27 5c9 -6 11 -14 6 -29l-14 -47h79v161l-47 -15c-16 -4 -23 -2 -29 6c-4 8 -3 16 5 27l118 144l118 -144c9 -11 10 -19 5 -27c-6 -8 -14 -10 -28 -6l-47 15v-161h79l-15 47c-4 15 -2 23 6 29c8 4 16 3 27 -5z" />
    <glyph glyph-name="yen" unicode="&#xa5;" horiz-adv-x="363" 
d="M356 700l-118 -414v-71h83v-98h-83v-117h-107v117h-83v98h83v66l-124 419h122l29 -133c12 -57 24 -124 28 -176c3 52 15 121 25 176l27 133h118z" />
    <glyph glyph-name="mu" unicode="&#xb5;" horiz-adv-x="535" 
d="M525 351l-145 -118c-10 -9 -19 -10 -27 -6c-8 7 -10 14 -6 29l14 45h-187l13 -45c5 -15 3 -22 -6 -29c-7 -4 -16 -3 -27 6l-144 118l144 118c11 8 20 9 27 5c9 -6 11 -14 6 -29l-13 -45h187l-14 45c-4 15 -2 23 6 29c8 4 17 3 27 -5z" />
    <glyph glyph-name="mu" unicode="&#x3bc;" horiz-adv-x="535" 
d="M525 351l-145 -118c-10 -9 -19 -10 -27 -6c-8 7 -10 14 -6 29l14 45h-187l13 -45c5 -15 3 -22 -6 -29c-7 -4 -16 -3 -27 6l-144 118l144 118c11 8 20 9 27 5c9 -6 11 -14 6 -29l-13 -45h187l-14 45c-4 15 -2 23 6 29c8 4 17 3 27 -5z" />
    <glyph glyph-name="partialdiff" unicode="&#x2202;" horiz-adv-x="303" 
d="M275 156c4 -7 3 -16 -6 -27l-118 -144l-117 144c-9 11 -10 20 -6 27c7 9 14 11 29 6l45 -13v402l-45 -13c-15 -5 -22 -3 -29 6c-4 7 -3 16 6 27l117 144l118 -144c9 -11 10 -20 6 -27c-7 -9 -14 -11 -29 -6l-45 13v-402l45 13c15 5 22 3 29 -6z" />
    <glyph glyph-name="summation" unicode="&#x2211;" 
d="M588 351l-144 -118c-11 -9 -19 -10 -27 -6c-8 7 -10 15 -6 29l15 47h-79v-162l47 15c15 4 22 2 28 -6c5 -8 4 -16 -5 -27l-118 -144l-118 144c-8 11 -9 19 -5 27c6 8 13 10 29 6l47 -15v162h-79l14 -47c5 -15 3 -22 -6 -29c-7 -4 -16 -3 -27 6l-144 118l144 118
c11 8 20 9 27 5c9 -6 11 -14 6 -29l-14 -47h79v161l-47 -15c-16 -4 -23 -2 -29 6c-4 8 -3 16 5 27l118 144l118 -144c9 -11 10 -19 5 -27c-6 -8 -14 -10 -28 -6l-47 15v-161h79l-15 47c-4 15 -2 23 6 29c8 4 16 3 27 -5z" />
    <glyph glyph-name="product" unicode="&#x220f;" 
d="M588 351l-144 -118c-11 -9 -19 -10 -27 -6c-8 7 -10 15 -6 29l15 47h-79v-162l47 15c15 4 22 2 28 -6c5 -8 4 -16 -5 -27l-118 -144l-118 144c-8 11 -9 19 -5 27c6 8 13 10 29 6l47 -15v162h-79l14 -47c5 -15 3 -22 -6 -29c-7 -4 -16 -3 -27 6l-144 118l144 118
c11 8 20 9 27 5c9 -6 11 -14 6 -29l-14 -47h79v161l-47 -15c-16 -4 -23 -2 -29 6c-4 8 -3 16 5 27l118 144l118 -144c9 -11 10 -19 5 -27c-6 -8 -14 -10 -28 -6l-47 15v-161h79l-15 47c-4 15 -2 23 6 29c8 4 16 3 27 -5z" />
    <glyph glyph-name="pi" unicode="&#x3c0;" horiz-adv-x="483" 
d="M455 350c0 -215 -73 -361 -214 -361s-213 146 -213 361s72 361 213 361s214 -146 214 -361zM400 350c0 181 -46 309 -159 309s-158 -128 -158 -309s45 -309 158 -309s159 128 159 309zM341 435c0 -85 -43 -120 -97 -120h-12v-164h-66v396h83c50 0 92 -30 92 -112z
M274 433c0 45 -10 59 -32 59h-10v-121h9c23 0 33 18 33 62z" />
    <glyph glyph-name="integral" unicode="&#x222b;" horiz-adv-x="352" 
d="M317 0h-106v25c-16 -20 -40 -36 -72 -36c-88 0 -112 101 -112 270c0 187 34 277 113 277c27 0 52 -14 71 -34v23h106v-525zM211 104v315c-10 10 -22 18 -39 18c-29 0 -38 -33 -38 -174c0 -135 8 -177 40 -177c14 0 27 8 37 18z" />
    <glyph glyph-name="ordfeminine" unicode="&#xaa;" horiz-adv-x="307" 
d="M266 282h-89v18c-16 -18 -32 -27 -58 -27c-55 0 -85 46 -85 139c0 92 32 141 97 141c21 0 35 -5 46 -12v49c0 29 -8 40 -30 40s-40 -11 -65 -32l-36 63c30 28 73 50 115 50c69 0 105 -30 105 -112v-317zM177 358v115c-8 5 -15 8 -29 8c-21 0 -29 -19 -29 -68
c0 -46 8 -67 31 -67c10 0 20 4 27 12z" />
    <glyph glyph-name="ordmasculine" unicode="&#xba;" horiz-adv-x="317" 
d="M280 494c0 -134 -31 -220 -124 -220c-86 0 -119 84 -119 216c0 129 25 221 123 221c88 0 120 -87 120 -217zM192 491c0 93 -6 143 -34 143c-29 0 -33 -52 -33 -140c0 -91 2 -143 34 -143c29 0 33 52 33 140z" />
    <glyph glyph-name="Omega" unicode="&#x3a9;" horiz-adv-x="303" 
d="M275 544c-7 -9 -14 -11 -29 -6l-45 13v-551h-99v551l-45 -13c-15 -5 -22 -3 -29 6c-4 7 -3 16 6 27l117 144l118 -144c9 -11 10 -20 6 -27z" />
    <glyph glyph-name="Omega" unicode="&#x2126;" horiz-adv-x="303" 
d="M275 544c-7 -9 -14 -11 -29 -6l-45 13v-551h-99v551l-45 -13c-15 -5 -22 -3 -29 6c-4 7 -3 16 6 27l117 144l118 -144c9 -11 10 -20 6 -27z" />
    <glyph glyph-name="ae" unicode="&#xe6;" horiz-adv-x="506" 
d="M482 229h-186c2 -110 16 -145 46 -145c22 0 30 17 45 71l92 -31c-25 -80 -56 -135 -142 -135c-42 0 -72 19 -91 48c-24 -26 -62 -48 -101 -48c-92 0 -126 57 -126 173c0 115 39 176 120 176c26 0 45 -7 59 -16v63c0 38 -11 52 -40 52c-26 0 -48 -14 -79 -40l-44 78
c37 34 87 61 138 61c49 0 73 -22 85 -51c16 28 44 51 86 51c93 0 138 -96 138 -275v-32zM380 313c-2 88 -14 133 -41 133s-39 -34 -42 -133h83zM211 103c-9 36 -14 85 -15 137c-10 6 -19 9 -36 9c-26 0 -38 -23 -38 -85c0 -59 13 -84 43 -84c16 0 33 11 46 23z" />
    <glyph glyph-name="oslash" unicode="&#xf8;" horiz-adv-x="349" 
d="M336 575l-41 -114c22 -48 31 -116 31 -197c0 -166 -34 -275 -152 -275c-18 0 -34 3 -48 8l-17 -47h-94l42 115c-23 48 -32 114 -32 195c0 161 29 276 153 276c17 0 33 -3 47 -8l17 47h94zM220 261c0 117 -7 178 -44 178c-39 0 -44 -64 -44 -175c0 -114 3 -178 45 -178
c38 0 43 64 43 175z" />
    <glyph glyph-name="questiondown" unicode="&#xbf;" horiz-adv-x="327" 
d="M249 645c0 -38 -27 -66 -65 -66c-39 0 -66 28 -66 66s27 66 66 66c38 0 65 -28 65 -66zM317 147c-19 -98 -64 -158 -156 -158c-95 0 -143 67 -143 163c0 73 21 120 63 176c46 63 54 94 54 188h98c0 -117 -12 -165 -64 -236c-32 -44 -46 -77 -46 -122c0 -44 12 -68 40 -68
c31 0 41 23 55 85z" />
    <glyph glyph-name="exclamdown" unicode="&#xa1;" horiz-adv-x="202" 
d="M167 645c0 -38 -27 -66 -66 -66s-65 28 -65 66s26 66 65 66s66 -28 66 -66zM155 0h-108v336l18 180h72l18 -180v-336z" />
    <glyph glyph-name="logicalnot" unicode="&#xac;" horiz-adv-x="371" 
d="M361 351l-145 -118c-10 -9 -19 -10 -26 -6c-9 7 -10 14 -6 29l14 45h-176v99h176l-14 45c-4 15 -3 23 6 29c7 4 16 3 26 -5z" />
    <glyph glyph-name="radical" unicode="&#x221a;" horiz-adv-x="369" 
d="M364 700l-139 -700h-113l-102 340h110l18 -75c8 -39 20 -97 26 -148c4 52 14 126 21 172l68 411h111z" />
    <glyph glyph-name="florin" unicode="&#x192;" horiz-adv-x="265" 
d="M246 612c-12 5 -29 6 -42 6c-26 0 -37 -13 -37 -40v-53h64v-96h-64v-574l-103 -48v622h-40v96h40v63c0 82 42 123 112 123c33 0 49 -2 70 -9v-90z" />
    <glyph glyph-name="approxequal" unicode="&#x2248;" horiz-adv-x="303" 
d="M275 156c4 -7 3 -16 -6 -27l-118 -144l-117 144c-9 11 -10 20 -6 27c7 9 14 11 29 6l45 -13v551h99v-551l45 13c15 5 22 3 29 -6z" />
    <glyph glyph-name="Delta" unicode="&#x394;" horiz-adv-x="371" 
d="M349 301h-175l13 -45c5 -15 3 -22 -6 -29c-7 -4 -16 -3 -27 6l-144 118l144 118c11 8 20 9 27 5c9 -6 11 -14 6 -29l-13 -45h175v-99z" />
    <glyph glyph-name="Delta" unicode="&#x2206;" horiz-adv-x="371" 
d="M349 301h-175l13 -45c5 -15 3 -22 -6 -29c-7 -4 -16 -3 -27 6l-144 118l144 118c11 8 20 9 27 5c9 -6 11 -14 6 -29l-13 -45h175v-99z" />
    <glyph glyph-name="guillemotleft" unicode="&#xab;" horiz-adv-x="425" 
d="M399 0h-102l-112 262l112 263h102l-109 -262zM227 0h-102l-112 262l112 263h102l-109 -262z" />
    <glyph glyph-name="guillemotright" unicode="&#xbb;" horiz-adv-x="425" 
d="M412 263l-112 -263h-102l109 262l-109 263h102zM240 263l-112 -263h-102l109 262l-109 263h102z" />
    <glyph glyph-name="ellipsis" unicode="&#x2026;" horiz-adv-x="614" 
d="M580 56c0 -38 -27 -67 -67 -67c-39 0 -67 29 -67 67c0 39 28 68 67 68c40 0 67 -29 67 -68zM376 56c0 -38 -28 -67 -67 -67s-67 29 -67 67c0 39 28 68 67 68s67 -29 67 -68zM171 56c0 -38 -28 -67 -67 -67s-67 29 -67 67c0 39 28 68 67 68s67 -29 67 -68z" />
    <glyph glyph-name="Agrave" unicode="&#xc0;" horiz-adv-x="367" 
d="M355 0h-112l-19 154h-82l-18 -154h-111l111 700h120zM213 255l-16 128c-6 50 -13 107 -16 162c-2 -55 -9 -113 -15 -163l-15 -127h62zM224 739h-73l-123 160h123z" />
    <glyph glyph-name="Atilde" unicode="&#xc3;" horiz-adv-x="367" 
d="M355 0h-112l-19 154h-82l-18 -154h-111l111 700h120zM213 255l-16 128c-6 50 -13 107 -16 162c-2 -55 -9 -113 -15 -163l-15 -127h62zM328 865c0 -91 -38 -127 -83 -127c-26 0 -45 8 -69 27c-20 17 -28 24 -40 24c-15 0 -22 -10 -25 -48h-71c0 91 38 127 83 127
c26 0 45 -8 69 -27c20 -17 29 -24 40 -24c15 0 22 11 25 48h71z" />
    <glyph glyph-name="Otilde" unicode="&#xd5;" horiz-adv-x="386" 
d="M357 352c0 -244 -40 -363 -166 -363c-123 0 -161 117 -161 359c0 244 39 363 163 363s164 -120 164 -359zM241 348c0 214 -13 260 -49 260c-37 0 -47 -44 -47 -256c0 -214 13 -260 48 -260c36 0 48 44 48 256zM337 865c0 -91 -38 -127 -83 -127c-26 0 -45 8 -69 27
c-20 17 -28 24 -40 24c-15 0 -22 -10 -25 -48h-71c0 91 38 127 83 127c26 0 45 -8 69 -27c20 -17 29 -24 40 -24c15 0 22 11 25 48h71z" />
    <glyph glyph-name="OE" unicode="&#x152;" horiz-adv-x="530" 
d="M510 0h-232v49c-19 -41 -46 -60 -91 -60c-117 0 -157 117 -157 359c0 244 41 363 158 363c43 0 72 -19 90 -59v48h223v-104h-150v-175h115v-104h-115v-213h159v-104zM241 348c0 214 -13 260 -49 260c-37 0 -47 -44 -47 -256c0 -214 13 -260 48 -260c36 0 48 44 48 256z
" />
    <glyph glyph-name="oe" unicode="&#x153;" horiz-adv-x="529" 
d="M505 229h-187c2 -110 17 -145 46 -145c23 0 30 17 45 71l92 -31c-24 -80 -56 -135 -141 -135c-45 0 -76 28 -91 63c-15 -35 -46 -63 -95 -63c-110 0 -149 106 -149 271c0 161 29 276 153 276c47 0 78 -28 93 -63c16 35 45 63 93 63c96 0 141 -96 141 -275v-32zM402 313
c-2 88 -14 133 -41 133s-39 -34 -42 -133h83zM219 261c0 117 -6 178 -43 178c-39 0 -44 -64 -44 -175c0 -114 3 -178 45 -178c38 0 42 64 42 175z" />
    <glyph glyph-name="endash" unicode="&#x2013;" horiz-adv-x="317" 
d="M285 316h-253v100h253v-100z" />
    <glyph glyph-name="emdash" unicode="&#x2014;" horiz-adv-x="391" 
d="M359 316h-327v100h327v-100z" />
    <glyph glyph-name="quotedblleft" unicode="&#x201c;" horiz-adv-x="385" 
d="M338 700l-14 -213h-115l64 213h65zM164 700l-13 -213h-115l63 213h65z" />
    <glyph glyph-name="quotedblright" unicode="&#x201d;" horiz-adv-x="385" 
d="M349 700l-64 -213h-65l13 213h116zM175 700l-63 -213h-65l13 213h115z" />
    <glyph glyph-name="quoteleft" unicode="&#x2018;" horiz-adv-x="211" 
d="M164 700l-13 -213h-115l63 213h65z" />
    <glyph glyph-name="quoteright" unicode="&#x2019;" horiz-adv-x="211" 
d="M175 700l-63 -213h-65l13 213h115z" />
    <glyph glyph-name="divide" unicode="&#xf7;" 
d="M588 351l-144 -118c-11 -9 -19 -10 -27 -6c-8 7 -10 15 -6 29l15 47h-79v-162l47 15c15 4 22 2 28 -6c5 -8 4 -16 -5 -27l-118 -144l-118 144c-8 11 -9 19 -5 27c6 8 13 10 29 6l47 -15v162h-79l14 -47c5 -15 3 -22 -6 -29c-7 -4 -16 -3 -27 6l-144 118l144 118
c11 8 20 9 27 5c9 -6 11 -14 6 -29l-14 -47h79v161l-47 -15c-16 -4 -23 -2 -29 6c-4 8 -3 16 5 27l118 144l118 -144c9 -11 10 -19 5 -27c-6 -8 -14 -10 -28 -6l-47 15v-161h79l-15 47c-4 15 -2 23 6 29c8 4 16 3 27 -5z" />
    <glyph glyph-name="lozenge" unicode="&#x25ca;" 
d="M588 351l-144 -118c-11 -9 -19 -10 -27 -6c-8 7 -10 15 -6 29l15 47h-79v-162l47 15c15 4 22 2 28 -6c5 -8 4 -16 -5 -27l-118 -144l-118 144c-8 11 -9 19 -5 27c6 8 13 10 29 6l47 -15v162h-79l14 -47c5 -15 3 -22 -6 -29c-7 -4 -16 -3 -27 6l-144 118l144 118
c11 8 20 9 27 5c9 -6 11 -14 6 -29l-14 -47h79v161l-47 -15c-16 -4 -23 -2 -29 6c-4 8 -3 16 5 27l118 144l118 -144c9 -11 10 -19 5 -27c-6 -8 -14 -10 -28 -6l-47 15v-161h79l-15 47c-4 15 -2 23 6 29c8 4 16 3 27 -5z" />
    <glyph glyph-name="ydieresis" unicode="&#xff;" horiz-adv-x="338" 
d="M328 525l-149 -710h-105l45 178l-109 532h110l20 -141c10 -73 23 -183 28 -255c4 72 19 183 30 255l21 141h109zM309 646c0 -34 -28 -62 -61 -62c-34 0 -62 28 -62 62c0 33 28 61 62 61c33 0 61 -28 61 -61zM152 646c0 -34 -28 -62 -61 -62c-35 0 -62 28 -62 62
c0 33 27 61 62 61c33 0 61 -28 61 -61z" />
    <glyph glyph-name="Ydieresis" unicode="&#x178;" horiz-adv-x="368" 
d="M361 700l-117 -404v-296h-113v291l-124 409h122l29 -133c14 -66 25 -124 31 -176c5 52 15 110 28 176l27 133h117zM325 801c0 -34 -28 -62 -61 -62c-34 0 -62 28 -62 62c0 33 28 61 62 61c33 0 61 -28 61 -61zM168 801c0 -34 -28 -62 -61 -62c-35 0 -62 28 -62 62
c0 33 27 61 62 61c33 0 61 -28 61 -61z" />
    <glyph glyph-name="fraction" unicode="&#x2044;" horiz-adv-x="371" 
d="M405 700l-329 -700h-111l330 700h110z" />
    <glyph glyph-name="fraction" unicode="&#x2215;" horiz-adv-x="371" 
d="M405 700l-329 -700h-111l330 700h110z" />
    <glyph glyph-name="currency" unicode="&#xa4;" horiz-adv-x="365" 
d="M138 368v-37h118v-82h-116c5 -130 23 -161 53 -161c25 0 39 29 48 117l103 -16c-15 -134 -54 -200 -155 -200c-119 0 -161 109 -161 359c0 249 40 363 163 363c109 0 141 -79 151 -203l-105 -16c-7 87 -18 120 -47 120s-46 -29 -50 -162h116v-82h-118z" />
    <glyph glyph-name="guilsinglleft" unicode="&#x2039;" horiz-adv-x="253" 
d="M227 0h-102l-112 262l112 263h102l-109 -262z" />
    <glyph glyph-name="guilsinglright" unicode="&#x203a;" horiz-adv-x="253" 
d="M240 263l-112 -263h-102l109 262l-109 263h102z" />
    <glyph glyph-name="daggerdbl" unicode="&#x2021;" horiz-adv-x="358" 
d="M340 120h-112v-220h-99v220h-111v98h111v166h-111v97h111v219h99v-219h112v-97h-112v-166h112v-98z" />
    <glyph glyph-name="periodcentered" unicode="&#xb7;" horiz-adv-x="205" 
d="M171 367c0 -38 -28 -67 -67 -67s-67 29 -67 67c0 39 28 68 67 68s67 -29 67 -68z" />
    <glyph glyph-name="periodcentered" unicode="&#x2219;" horiz-adv-x="205" 
d="M171 367c0 -38 -28 -67 -67 -67s-67 29 -67 67c0 39 28 68 67 68s67 -29 67 -68z" />
    <glyph glyph-name="quotesinglbase" unicode="&#x201a;" horiz-adv-x="211" 
d="M175 118l-63 -213h-65l13 213h115z" />
    <glyph glyph-name="quotedblbase" unicode="&#x201e;" horiz-adv-x="385" 
d="M349 118l-64 -213h-65l13 213h116zM175 118l-63 -213h-65l13 213h115z" />
    <glyph glyph-name="perthousand" unicode="&#x2030;" horiz-adv-x="1002" 
d="M284 494c0 -135 -36 -219 -128 -219s-126 82 -126 217s36 219 128 219s126 -82 126 -217zM565 700l-318 -700h-97l318 700h97zM979 208c0 -135 -36 -219 -128 -219s-126 82 -126 217s36 219 128 219s126 -82 126 -217zM685 208c0 -135 -36 -219 -128 -219
s-126 82 -126 217s36 219 128 219s126 -82 126 -217zM189 492c0 96 -5 134 -32 134s-31 -36 -31 -132s5 -134 32 -134s31 36 31 132zM884 206c0 96 -6 134 -32 134c-27 0 -31 -36 -31 -132s5 -134 32 -134s31 36 31 132zM590 206c0 96 -6 134 -32 134
c-27 0 -31 -36 -31 -132s5 -134 32 -134s31 36 31 132z" />
    <glyph glyph-name="Acircumflex" unicode="&#xc2;" horiz-adv-x="367" 
d="M355 0h-112l-19 154h-82l-18 -154h-111l111 700h120zM213 255l-16 128c-6 50 -13 107 -16 162c-2 -55 -9 -113 -15 -163l-15 -127h62zM310 730h-77l-50 78l-50 -78h-75l87 160h78z" />
    <glyph glyph-name="Ecircumflex" unicode="&#xca;" horiz-adv-x="336" 
d="M316 0h-271v700h262v-104h-150v-175h115v-104h-115v-213h159v-104zM301 739h-77l-50 78l-50 -78h-75l87 160h78z" />
    <glyph glyph-name="Aacute" unicode="&#xc1;" horiz-adv-x="367" 
d="M355 0h-112l-19 154h-82l-18 -154h-111l111 700h120zM213 255l-16 128c-6 50 -13 107 -16 162c-2 -55 -9 -113 -15 -163l-15 -127h62zM339 899l-123 -160h-73l73 160h123z" />
    <glyph glyph-name="Edieresis" unicode="&#xcb;" horiz-adv-x="336" 
d="M316 0h-271v700h262v-104h-150v-175h115v-104h-115v-213h159v-104zM315 801c0 -34 -28 -62 -61 -62c-34 0 -62 28 -62 62c0 33 28 61 62 61c33 0 61 -28 61 -61zM158 801c0 -34 -28 -62 -61 -62c-35 0 -62 28 -62 62c0 33 27 61 62 61c33 0 61 -28 61 -61z" />
    <glyph glyph-name="Egrave" unicode="&#xc8;" horiz-adv-x="336" 
d="M316 0h-271v700h262v-104h-150v-175h115v-104h-115v-213h159v-104zM225 739h-73l-123 160h123z" />
    <glyph glyph-name="Iacute" unicode="&#xcd;" horiz-adv-x="206" 
d="M159 0h-112v700h112v-700zM261 899l-123 -160h-73l73 160h123z" />
    <glyph glyph-name="Icircumflex" unicode="&#xce;" horiz-adv-x="206" 
d="M159 0h-112v700h112v-700zM229 736h-77l-50 78l-50 -78h-75l87 160h78z" />
    <glyph glyph-name="Idieresis" unicode="&#xcf;" horiz-adv-x="206" 
d="M159 0h-112v700h112v-700zM243 805c0 -34 -28 -62 -61 -62c-34 0 -62 28 -62 62c0 33 28 61 62 61c33 0 61 -28 61 -61zM86 805c0 -34 -28 -62 -61 -62c-35 0 -62 28 -62 62c0 33 27 61 62 61c33 0 61 -28 61 -61z" />
    <glyph glyph-name="Igrave" unicode="&#xcc;" horiz-adv-x="206" 
d="M159 0h-112v700h112v-700zM141 739h-73l-123 160h123z" />
    <glyph glyph-name="Oacute" unicode="&#xd3;" horiz-adv-x="386" 
d="M357 352c0 -244 -40 -363 -166 -363c-123 0 -161 117 -161 359c0 244 39 363 163 363s164 -120 164 -359zM241 348c0 214 -13 260 -49 260c-37 0 -47 -44 -47 -256c0 -214 13 -260 48 -260c36 0 48 44 48 256zM346 901l-123 -160h-73l73 160h123z" />
    <glyph glyph-name="Ocircumflex" unicode="&#xd4;" horiz-adv-x="386" 
d="M357 352c0 -244 -40 -363 -166 -363c-123 0 -161 117 -161 359c0 244 39 363 163 363s164 -120 164 -359zM241 348c0 214 -13 260 -49 260c-37 0 -47 -44 -47 -256c0 -214 13 -260 48 -260c36 0 48 44 48 256zM319 738h-77l-50 78l-50 -78h-75l87 160h78z" />
    <glyph glyph-name="apple" unicode="&#xf8ff;" 
d="M588 351l-144 -118c-11 -9 -19 -10 -27 -6c-8 7 -10 15 -6 29l15 47h-79v-162l47 15c15 4 22 2 28 -6c5 -8 4 -16 -5 -27l-118 -144l-118 144c-8 11 -9 19 -5 27c6 8 13 10 29 6l47 -15v162h-79l14 -47c5 -15 3 -22 -6 -29c-7 -4 -16 -3 -27 6l-144 118l144 118
c11 8 20 9 27 5c9 -6 11 -14 6 -29l-14 -47h79v161l-47 -15c-16 -4 -23 -2 -29 6c-4 8 -3 16 5 27l118 144l118 -144c9 -11 10 -19 5 -27c-6 -8 -14 -10 -28 -6l-47 15v-161h79l-15 47c-4 15 -2 23 6 29c8 4 16 3 27 -5z" />
    <glyph glyph-name="Ograve" unicode="&#xd2;" horiz-adv-x="386" 
d="M357 352c0 -244 -40 -363 -166 -363c-123 0 -161 117 -161 359c0 244 39 363 163 363s164 -120 164 -359zM241 348c0 214 -13 260 -49 260c-37 0 -47 -44 -47 -256c0 -214 13 -260 48 -260c36 0 48 44 48 256zM232 741h-73l-123 160h123z" />
    <glyph glyph-name="Uacute" unicode="&#xda;" horiz-adv-x="402" 
d="M359 179c0 -122 -50 -190 -159 -190c-101 0 -157 70 -157 183v528h112v-529c0 -58 16 -79 47 -79c33 0 45 21 45 78v530h112v-521zM355 897l-123 -160h-73l73 160h123z" />
    <glyph glyph-name="Ucircumflex" unicode="&#xdb;" horiz-adv-x="402" 
d="M359 179c0 -122 -50 -190 -159 -190c-101 0 -157 70 -157 183v528h112v-529c0 -58 16 -79 47 -79c33 0 45 21 45 78v530h112v-521zM327 739h-77l-50 78l-50 -78h-75l87 160h78z" />
    <glyph glyph-name="Ugrave" unicode="&#xd9;" horiz-adv-x="402" 
d="M359 179c0 -122 -50 -190 -159 -190c-101 0 -157 70 -157 183v528h112v-529c0 -58 16 -79 47 -79c33 0 45 21 45 78v530h112v-521zM243 737h-73l-123 160h123z" />
    <glyph glyph-name="dotlessi" unicode="&#x131;" horiz-adv-x="182" 
d="M144 0h-107v525h107v-525z" />
    <glyph glyph-name="circumflex" unicode="&#x2c6;" horiz-adv-x="330" 
d="M291 589h-77l-50 78l-50 -78h-75l87 160h78z" />
    <glyph glyph-name="tilde" unicode="&#x2dc;" horiz-adv-x="330" 
d="M309 715c0 -91 -38 -127 -83 -127c-26 0 -45 8 -69 27c-20 17 -28 24 -40 24c-15 0 -22 -10 -25 -48h-71c0 91 38 127 83 127c26 0 45 -8 69 -27c20 -17 29 -24 40 -24c15 0 22 11 25 48h71z" />
    <glyph glyph-name="macron" unicode="&#xaf;" horiz-adv-x="330" 
d="M291 607h-252v79h252v-79z" />
    <glyph glyph-name="macron" unicode="&#x2c9;" horiz-adv-x="330" 
d="M291 607h-252v79h252v-79z" />
    <glyph glyph-name="breve" unicode="&#x2d8;" horiz-adv-x="330" 
d="M297 731c-4 -95 -52 -142 -132 -142c-76 0 -125 47 -129 142h67c5 -49 22 -73 64 -73c38 0 58 23 63 73h67z" />
    <glyph glyph-name="dotaccent" unicode="&#x2d9;" horiz-adv-x="330" 
d="M226 651c0 -34 -27 -62 -61 -62s-61 28 -61 62c0 33 27 61 61 61s61 -28 61 -61z" />
    <glyph glyph-name="ring" unicode="&#x2da;" horiz-adv-x="330" 
d="M265 690c0 -57 -42 -100 -100 -100s-100 43 -100 100s42 100 100 100s100 -43 100 -100zM209 690c0 26 -19 46 -44 46s-44 -20 -44 -46c0 -27 19 -47 44 -47s44 20 44 47z" />
    <glyph glyph-name="cedilla" unicode="&#xb8;" horiz-adv-x="330" 
d="M254 -113c0 -55 -42 -80 -94 -80c-32 0 -66 13 -90 30l19 33c25 -15 42 -22 63 -22c23 0 38 15 38 38c0 21 -12 29 -25 29c-10 0 -20 -3 -29 -11l-33 19l28 77h42l-18 -50c9 5 22 9 39 9c31 0 60 -26 60 -72z" />
    <glyph glyph-name="hungarumlaut" unicode="&#x2dd;" horiz-adv-x="330" 
d="M343 749l-123 -160h-64l73 160h114zM198 749l-123 -160h-65l74 160h114z" />
    <glyph glyph-name="ogonek" unicode="&#x2db;" horiz-adv-x="330" 
d="M262 -158c-29 -21 -59 -35 -97 -35c-47 0 -75 29 -75 73c0 41 22 78 60 120h48c-28 -46 -39 -76 -39 -106c0 -26 11 -39 30 -39c18 0 36 6 56 19z" />
    <glyph glyph-name="caron" unicode="&#x2c7;" horiz-adv-x="330" 
d="M291 749l-87 -160h-78l-87 160h77l50 -79l50 79h75z" />
    <glyph glyph-name="Euro" unicode="&#x20ac;" horiz-adv-x="365" 
d="M138 368v-37h118v-82h-116c5 -130 23 -161 53 -161c25 0 39 29 48 117l103 -16c-15 -134 -54 -200 -155 -200c-119 0 -161 109 -161 359c0 249 40 363 163 363c109 0 141 -79 151 -203l-105 -16c-7 87 -18 120 -47 120s-46 -29 -50 -162h116v-82h-118z" />
    </font>
</defs>
</svg>
